<svg width="580" height="140" viewBox="0 0 116 28" fill="none" xmlns="http://www.w3.org/2000/svg">
<path d="M21 18V9.99999C20.9996 9.64927 20.9071 9.3048 20.7315 9.00116C20.556 8.69751 20.3037 8.44536 20 8.26999L13 4.26999C12.696 4.09446 12.3511 4.00204 12 4.00204C11.6489 4.00204 11.304 4.09446 11 4.26999L4 8.26999C3.69626 8.44536 3.44398 8.69751 3.26846 9.00116C3.09294 9.3048 3.00036 9.64927 3 9.99999V18C3.00036 18.3507 3.09294 18.6952 3.26846 18.9988C3.44398 19.3025 3.69626 19.5546 4 19.73L11 23.73C11.304 23.9055 11.6489 23.9979 12 23.9979C12.3511 23.9979 12.696 23.9055 13 23.73L20 19.73C20.3037 19.5546 20.556 19.3025 20.7315 18.9988C20.9071 18.6952 20.9996 18.3507 21 18Z" stroke="white" stroke-width="2" stroke-linecap="round" stroke-linejoin="round"/>
<path d="M7.5 6.20999L12 8.80999L16.5 6.20999" stroke="white" stroke-width="2" stroke-linecap="round" stroke-linejoin="round"/>
<path d="M7.5 21.79V16.6L3 14" stroke="white" stroke-width="2" stroke-linecap="round" stroke-linejoin="round"/>
<path d="M21 14L16.5 16.6V21.79" stroke="white" stroke-width="2" stroke-linecap="round" stroke-linejoin="round"/>
<path d="M3.27002 8.95999L12 14.01L20.73 8.95999" stroke="white" stroke-width="2" stroke-linecap="round" stroke-linejoin="round"/>
<path d="M12 24.08V14" stroke="white" stroke-width="2" stroke-linecap="round" stroke-linejoin="round"/>
<path d="M29.024 22C28.864 22 28.728 21.944 28.616 21.832C28.504 21.72 28.448 21.584 28.448 21.424V19.648C28.448 19.472 28.504 19.328 28.616 19.216C28.728 19.104 28.864 19.048 29.024 19.048H29.912C30.376 19.048 30.776 18.952 31.112 18.76C31.448 18.552 31.76 18.232 32.048 17.8C32.336 17.352 32.624 16.784 32.912 16.096L37.496 5.656C37.544 5.496 37.624 5.384 37.736 5.32C37.864 5.24 38 5.2 38.144 5.2H40.376C40.504 5.2 40.616 5.248 40.712 5.344C40.824 5.44 40.88 5.552 40.88 5.68C40.88 5.76 40.872 5.832 40.856 5.896C40.84 5.96 40.816 6.024 40.784 6.088L35.96 17.104C35.56 17.984 35.184 18.736 34.832 19.36C34.48 19.968 34.096 20.472 33.68 20.872C33.264 21.256 32.768 21.544 32.192 21.736C31.632 21.912 30.952 22 30.152 22H29.024ZM32.744 17.8L26.336 5.968C26.288 5.872 26.264 5.792 26.264 5.728C26.264 5.584 26.32 5.464 26.432 5.368C26.544 5.256 26.664 5.2 26.792 5.2H29.144C29.288 5.2 29.408 5.24 29.504 5.32C29.616 5.384 29.704 5.496 29.768 5.656L34.496 14.488L32.744 17.8ZM42.9714 22C42.8114 22 42.6834 21.952 42.5874 21.856C42.4914 21.76 42.4434 21.64 42.4434 21.496V9.976C42.4434 9.848 42.4914 9.744 42.5874 9.664C42.6994 9.568 42.8114 9.52 42.9234 9.52H44.9394C45.2114 9.52 45.4194 9.656 45.5634 9.928L49.2594 16.648L52.9554 9.928C53.0994 9.656 53.3074 9.52 53.5794 9.52H55.5714C55.7154 9.52 55.8354 9.568 55.9314 9.664C56.0274 9.744 56.0754 9.848 56.0754 9.976V21.496C56.0754 21.64 56.0274 21.76 55.9314 21.856C55.8354 21.952 55.7074 22 55.5474 22H53.4834C53.3234 22 53.1954 21.952 53.0994 21.856C53.0194 21.76 52.9794 21.64 52.9794 21.496V12.784L53.9634 12.952L50.4114 19.504C50.3314 19.648 50.2354 19.784 50.1234 19.912C50.0114 20.024 49.8514 20.08 49.6434 20.08H48.8514C48.6594 20.08 48.5074 20.024 48.3954 19.912C48.2834 19.8 48.1874 19.664 48.1074 19.504L44.6274 13.216L45.5394 13.072V21.496C45.5394 21.64 45.4914 21.76 45.3954 21.856C45.2994 21.952 45.1794 22 45.0354 22H42.9714ZM66.0864 22.24C64.5984 22.24 63.3344 21.984 62.2944 21.472C61.2704 20.944 60.4864 20.2 59.9424 19.24C59.3984 18.264 59.0944 17.096 59.0304 15.736C59.0144 15.08 59.0064 14.376 59.0064 13.624C59.0064 12.872 59.0144 12.152 59.0304 11.464C59.0944 10.12 59.3984 8.96 59.9424 7.984C60.5024 7.008 61.2944 6.264 62.3184 5.752C63.3584 5.224 64.6144 4.96 66.0864 4.96C67.1744 4.96 68.1504 5.104 69.0144 5.392C69.8784 5.68 70.6144 6.08 71.2224 6.592C71.8304 7.088 72.3024 7.672 72.6384 8.344C72.9744 9.016 73.1504 9.744 73.1664 10.528C73.1824 10.672 73.1344 10.792 73.0224 10.888C72.9264 10.984 72.8064 11.032 72.6624 11.032H70.3824C70.2064 11.032 70.0624 10.992 69.9504 10.912C69.8384 10.816 69.7584 10.664 69.7104 10.456C69.4544 9.4 69.0144 8.68 68.3904 8.296C67.7664 7.912 66.9904 7.72 66.0624 7.72C64.9904 7.72 64.1344 8.024 63.4944 8.632C62.8544 9.224 62.5104 10.208 62.4624 11.584C62.4144 12.896 62.4144 14.24 62.4624 15.616C62.5104 16.992 62.8544 17.984 63.4944 18.592C64.1344 19.184 64.9904 19.48 66.0624 19.48C66.9904 19.48 67.7664 19.288 68.3904 18.904C69.0144 18.504 69.4544 17.784 69.7104 16.744C69.7584 16.52 69.8384 16.368 69.9504 16.288C70.0624 16.208 70.2064 16.168 70.3824 16.168H72.6624C72.8064 16.168 72.9264 16.216 73.0224 16.312C73.1344 16.408 73.1824 16.528 73.1664 16.672C73.1504 17.456 72.9744 18.184 72.6384 18.856C72.3024 19.528 71.8304 20.12 71.2224 20.632C70.6144 21.128 69.8784 21.52 69.0144 21.808C68.1504 22.096 67.1744 22.24 66.0864 22.24ZM79.5406 22C79.3646 22 79.2206 21.944 79.1086 21.832C79.0126 21.72 78.9646 21.584 78.9646 21.424V12.064H75.0526C74.8766 12.064 74.7326 12.008 74.6206 11.896C74.5246 11.784 74.4766 11.648 74.4766 11.488V10.096C74.4766 9.936 74.5246 9.8 74.6206 9.688C74.7326 9.576 74.8766 9.52 75.0526 9.52H85.9486C86.1246 9.52 86.2686 9.576 86.3806 9.688C86.4926 9.8 86.5486 9.936 86.5486 10.096V11.488C86.5486 11.648 86.4926 11.784 86.3806 11.896C86.2686 12.008 86.1246 12.064 85.9486 12.064H82.0606V21.424C82.0606 21.584 82.0046 21.72 81.8926 21.832C81.7806 21.944 81.6446 22 81.4846 22H79.5406ZM89.3392 26.56C89.1792 26.56 89.0432 26.504 88.9312 26.392C88.8192 26.296 88.7632 26.16 88.7632 25.984V24.616C88.7632 24.44 88.8192 24.296 88.9312 24.184C89.0432 24.088 89.1792 24.04 89.3392 24.04H90.0832C90.4032 24.04 90.6672 23.976 90.8752 23.848C91.0832 23.72 91.2752 23.504 91.4512 23.2C91.6272 22.912 91.8192 22.512 92.0272 22L97.0192 9.976C97.0832 9.848 97.1632 9.744 97.2592 9.664C97.3552 9.568 97.4992 9.52 97.6912 9.52H99.5152C99.6432 9.52 99.7552 9.568 99.8512 9.664C99.9632 9.76 100.019 9.872 100.019 10C100.019 10.064 100.011 10.12 99.9952 10.168C99.9952 10.216 99.9712 10.288 99.9232 10.384L95.3632 21.28C95.0912 21.968 94.7952 22.624 94.4752 23.248C94.1712 23.888 93.8272 24.456 93.4432 24.952C93.0752 25.464 92.6432 25.856 92.1472 26.128C91.6512 26.416 91.0672 26.56 90.3952 26.56H89.3392ZM92.4352 21.688L87.5632 10.384C87.4992 10.224 87.4672 10.112 87.4672 10.048C87.4832 9.904 87.5392 9.784 87.6352 9.688C87.7312 9.576 87.8512 9.52 87.9952 9.52H89.9152C90.1072 9.52 90.2432 9.568 90.3232 9.664C90.4192 9.76 90.4912 9.864 90.5392 9.976L94.2592 19.144L92.4352 21.688ZM101.659 24.64C101.499 24.64 101.363 24.584 101.251 24.472C101.139 24.36 101.083 24.224 101.083 24.064V20.032C101.083 19.872 101.139 19.736 101.251 19.624C101.363 19.512 101.499 19.456 101.659 19.456H101.851C102.267 19.456 102.603 19.24 102.859 18.808C103.131 18.36 103.331 17.688 103.459 16.792C103.587 15.88 103.651 14.728 103.651 13.336V10.096C103.651 9.936 103.707 9.8 103.819 9.688C103.931 9.576 104.067 9.52 104.227 9.52H112.771C112.947 9.52 113.083 9.576 113.179 9.688C113.291 9.8 113.347 9.936 113.347 10.096V19.432H114.427C114.603 19.432 114.739 19.488 114.835 19.6C114.947 19.712 115.003 19.848 115.003 20.008V24.064C115.003 24.224 114.947 24.36 114.835 24.472C114.739 24.584 114.603 24.64 114.427 24.64H112.435C112.275 24.64 112.139 24.584 112.027 24.472C111.915 24.36 111.859 24.224 111.859 24.064V22H104.227V24.064C104.227 24.224 104.171 24.36 104.059 24.472C103.947 24.584 103.811 24.64 103.651 24.64H101.659ZM105.547 19.456L110.203 19.432V12.064H106.675V13.672C106.675 15.112 106.579 16.304 106.387 17.248C106.195 18.192 105.915 18.928 105.547 19.456Z" fill="white"/>
<path d="M28.616 21.832L28.9696 21.4784L28.616 21.832ZM31.112 18.76L31.3601 19.1941L31.3677 19.1898L31.3752 19.1851L31.112 18.76ZM32.048 17.8L32.4641 18.0774L32.4686 18.0704L32.048 17.8ZM32.912 16.096L32.4541 15.895L32.4508 15.9029L32.912 16.096ZM37.496 5.656L37.9538 5.85702L37.9661 5.82899L37.9749 5.79967L37.496 5.656ZM37.736 5.32L37.9841 5.75412L37.9926 5.74923L38.001 5.744L37.736 5.32ZM40.712 5.344L40.3584 5.69755L40.372 5.71113L40.3866 5.72363L40.712 5.344ZM40.856 5.896L41.3411 6.01727V6.01727L40.856 5.896ZM40.784 6.088L40.3368 5.86439L40.3311 5.87578L40.326 5.88743L40.784 6.088ZM35.96 17.104L36.4152 17.3109L36.418 17.3046L35.96 17.104ZM34.832 19.36L35.2647 19.6105L35.2675 19.6057L34.832 19.36ZM33.68 20.872L34.0192 21.2395L34.0266 21.2324L33.68 20.872ZM32.192 21.736L32.3419 22.2131L32.3501 22.2103L32.192 21.736ZM32.744 17.8L32.3043 18.0381L32.7492 18.8595L33.186 18.0338L32.744 17.8ZM26.336 5.968L25.8888 6.19161L25.8924 6.19892L25.8963 6.20611L26.336 5.968ZM26.432 5.368L26.7574 5.74763L26.772 5.73513L26.7856 5.72155L26.432 5.368ZM29.504 5.32L29.1839 5.70411L29.2177 5.73228L29.2559 5.75412L29.504 5.32ZM29.768 5.656L29.3038 5.84169L29.3141 5.86749L29.3272 5.89198L29.768 5.656ZM34.496 14.488L34.938 14.7218L35.0624 14.4866L34.9368 14.252L34.496 14.488ZM29.024 21.5C29.0035 21.5 28.9949 21.4967 28.9924 21.4957C28.99 21.4947 28.9825 21.4914 28.9696 21.4784L28.2624 22.1856C28.4693 22.3924 28.7329 22.5 29.024 22.5V21.5ZM28.9696 21.4784C28.9566 21.4655 28.9533 21.458 28.9523 21.4556C28.9513 21.4531 28.948 21.4445 28.948 21.424H27.948C27.948 21.7151 28.0556 21.9787 28.2624 22.1856L28.9696 21.4784ZM28.948 21.424V19.648H27.948V21.424H28.948ZM28.948 19.648C28.948 19.5885 28.9622 19.577 28.9696 19.5696L28.2624 18.8624C28.0458 19.079 27.948 19.3555 27.948 19.648H28.948ZM28.9696 19.5696C28.9825 19.5566 28.99 19.5533 28.9924 19.5523C28.9949 19.5513 29.0035 19.548 29.024 19.548V18.548C28.7329 18.548 28.4693 18.6556 28.2624 18.8624L28.9696 19.5696ZM29.024 19.548H29.912V18.548H29.024V19.548ZM29.912 19.548C30.4457 19.548 30.9348 19.4371 31.3601 19.1941L30.8639 18.3259C30.6172 18.4669 30.3063 18.548 29.912 18.548V19.548ZM31.3752 19.1851C31.7881 18.9295 32.1482 18.5511 32.464 18.0773L31.632 17.5226C31.3718 17.9129 31.1079 18.1745 30.8488 18.3349L31.3752 19.1851ZM32.4686 18.0704C32.7772 17.5903 33.0781 16.9942 33.3732 16.2891L32.4508 15.9029C32.1699 16.5738 31.8948 17.1137 31.6274 17.5296L32.4686 18.0704ZM33.3698 16.297L37.9538 5.85702L37.0382 5.45498L32.4542 15.895L33.3698 16.297ZM37.9749 5.79967C37.9864 5.76142 37.9968 5.74555 37.9989 5.74262C37.9998 5.74133 37.9989 5.74277 37.9959 5.74558C37.9927 5.74845 37.9887 5.7515 37.9841 5.75412L37.4879 4.88588C37.2347 5.0306 37.0907 5.26701 37.0171 5.51232L37.9749 5.79967ZM38.001 5.744C38.0536 5.71115 38.0983 5.7 38.144 5.7V4.7C37.9017 4.7 37.6744 4.76884 37.471 4.896L38.001 5.744ZM38.144 5.7H40.376V4.7H38.144V5.7ZM40.376 5.7C40.3766 5.7 40.3747 5.70004 40.3709 5.69929C40.3671 5.69853 40.363 5.69727 40.359 5.69557C40.3551 5.69389 40.3529 5.69242 40.3524 5.69209C40.352 5.69183 40.3541 5.69323 40.3584 5.69755L41.0656 4.99045C40.8821 4.80699 40.6453 4.7 40.376 4.7V5.7ZM40.3866 5.72363C40.4009 5.73586 40.3974 5.73684 40.3908 5.72361C40.3876 5.71719 40.3846 5.70932 40.3826 5.70061C40.3806 5.69195 40.38 5.68476 40.38 5.68H41.38C41.38 5.38299 41.2414 5.13927 41.0374 4.96437L40.3866 5.72363ZM40.38 5.68C40.38 5.72745 40.3752 5.75773 40.3709 5.77473L41.3411 6.01727C41.3688 5.90627 41.38 5.79255 41.38 5.68H40.38ZM40.3709 5.77473C40.3645 5.8005 40.3538 5.8303 40.3368 5.86439L41.2312 6.3116C41.2782 6.2177 41.3155 6.1195 41.3411 6.01727L40.3709 5.77473ZM40.326 5.88743L35.502 16.9034L36.418 17.3046L41.242 6.28857L40.326 5.88743ZM35.5048 16.8971C35.1089 17.7681 34.7394 18.5064 34.3965 19.1143L35.2675 19.6057C35.6286 18.9656 36.0111 18.1999 36.4152 17.3109L35.5048 16.8971ZM34.3993 19.1095C34.0658 19.6854 33.7093 20.1501 33.3334 20.5116L34.0266 21.2324C34.4827 20.7939 34.8942 20.2506 35.2647 19.6105L34.3993 19.1095ZM33.3409 20.5046C32.9806 20.8371 32.5476 21.0904 32.0339 21.2617L32.3501 22.2103C32.9884 21.9976 33.5474 21.6749 34.0191 21.2394L33.3409 20.5046ZM32.0421 21.259C31.5446 21.4154 30.9183 21.5 30.152 21.5V22.5C30.9857 22.5 31.7194 22.4086 32.3419 22.213L32.0421 21.259ZM30.152 21.5H29.024V22.5H30.152V21.5ZM33.1837 17.5619L26.7757 5.72989L25.8963 6.20611L32.3043 18.0381L33.1837 17.5619ZM26.7832 5.74439C26.7761 5.73022 26.771 5.7187 26.7673 5.70968C26.7636 5.70063 26.7617 5.69492 26.7609 5.69233C26.7601 5.68968 26.7608 5.69132 26.7617 5.6968C26.7626 5.70226 26.764 5.71294 26.764 5.728H25.764C25.764 5.90529 25.8266 6.06731 25.8888 6.19161L26.7832 5.74439ZM26.764 5.728C26.764 5.72455 26.7643 5.72494 26.7636 5.72825C26.7629 5.73169 26.7615 5.73638 26.7591 5.74144C26.7567 5.74648 26.7544 5.7499 26.7532 5.75147C26.752 5.75292 26.7529 5.75148 26.7574 5.74763L26.1066 4.98837C25.8869 5.1767 25.764 5.43399 25.764 5.728H26.764ZM26.7856 5.72155C26.8082 5.69889 26.8195 5.69414 26.8174 5.69509C26.8164 5.6956 26.813 5.69701 26.8076 5.69822C26.8022 5.69944 26.7968 5.7 26.792 5.7V4.7C26.5014 4.7 26.2606 4.83227 26.0784 5.01445L26.7856 5.72155ZM26.792 5.7H29.144V4.7H26.792V5.7ZM29.144 5.7C29.1696 5.7 29.1814 5.70351 29.1839 5.70434C29.1853 5.7048 29.1853 5.70494 29.1847 5.70458C29.184 5.70421 29.1837 5.70391 29.1839 5.70411L29.8241 4.93589C29.6248 4.76979 29.3862 4.7 29.144 4.7V5.7ZM29.2559 5.75412C29.2414 5.74581 29.2676 5.75134 29.3038 5.84169L30.2322 5.4703C30.1404 5.24066 29.9906 5.02219 29.7521 4.88588L29.2559 5.75412ZM29.3272 5.89198L34.0552 14.724L34.9368 14.252L30.2088 5.42002L29.3272 5.89198ZM34.054 14.2542L32.302 17.5662L33.186 18.0338L34.938 14.7218L34.054 14.2542ZM42.5874 21.856L42.9409 21.5024H42.9409L42.5874 21.856ZM42.5874 9.664L42.9075 10.0481L42.9128 10.0436L42.5874 9.664ZM45.5634 9.928L45.1214 10.162L45.1253 10.169L45.5634 9.928ZM49.2594 16.648L48.8213 16.889L49.2594 17.6855L49.6975 16.889L49.2594 16.648ZM52.9554 9.928L53.3935 10.169L53.3973 10.1619L52.9554 9.928ZM55.9314 9.664L55.5778 10.0176L55.5939 10.0336L55.6113 10.0481L55.9314 9.664ZM53.0994 21.856L52.7153 22.1761L52.7298 22.1935L52.7458 22.2096L53.0994 21.856ZM52.9794 12.784L53.0635 12.2911L52.4794 12.1914V12.784H52.9794ZM53.9634 12.952L54.4029 13.1903L54.7356 12.5766L54.0475 12.4591L53.9634 12.952ZM50.4114 19.504L50.8485 19.7468L50.8509 19.7423L50.4114 19.504ZM50.1234 19.912L50.4769 20.2656L50.4887 20.2538L50.4997 20.2413L50.1234 19.912ZM48.1074 19.504L48.5546 19.2804L48.5499 19.271L48.5448 19.2619L48.1074 19.504ZM44.6274 13.216L44.5494 12.7221L43.8442 12.8335L44.1899 13.4581L44.6274 13.216ZM45.5394 13.072H46.0394V12.4869L45.4614 12.5781L45.5394 13.072ZM45.3954 21.856L45.0418 21.5024L45.3954 21.856ZM42.9714 21.5C42.9413 21.5 42.9301 21.4955 42.9309 21.4958C42.9313 21.496 42.9331 21.4967 42.9358 21.4984C42.9384 21.5001 42.9402 21.5017 42.9409 21.5024L42.2338 22.2096C42.4402 22.4159 42.7042 22.5 42.9714 22.5V21.5ZM42.9409 21.5024C42.9391 21.5007 42.9393 21.5005 42.9404 21.5021C42.9415 21.5038 42.9427 21.506 42.9436 21.5083C42.9445 21.5105 42.9445 21.5114 42.9443 21.5101C42.9441 21.5086 42.9434 21.5042 42.9434 21.496H41.9434C41.9434 21.7637 42.0379 22.0137 42.2338 22.2096L42.9409 21.5024ZM42.9434 21.496V9.976H41.9434V21.496H42.9434ZM42.9434 9.976C42.9434 9.9758 42.9431 9.9905 42.9334 10.0115C42.9235 10.0329 42.9112 10.045 42.9075 10.0481L42.2673 9.27989C42.0541 9.45752 41.9434 9.70377 41.9434 9.976H42.9434ZM42.9128 10.0436C42.9381 10.0219 42.9516 10.0159 42.9523 10.0156C42.9525 10.0155 42.9497 10.0167 42.9441 10.0179C42.9385 10.0191 42.9314 10.02 42.9234 10.02V9.02C42.6585 9.02 42.4354 9.13568 42.262 9.28437L42.9128 10.0436ZM42.9234 10.02H44.9394V9.02H42.9234V10.02ZM44.9394 10.02C44.9877 10.02 45.0107 10.0307 45.0258 10.0405C45.044 10.0524 45.0797 10.0831 45.1215 10.1619L46.0053 9.69406C45.903 9.5009 45.7628 9.3276 45.573 9.20351C45.38 9.07732 45.163 9.02 44.9394 9.02V10.02ZM45.1253 10.169L48.8213 16.889L49.6975 16.407L46.0015 9.68704L45.1253 10.169ZM49.6975 16.889L53.3935 10.169L52.5173 9.68704L48.8213 16.407L49.6975 16.889ZM53.3973 10.1619C53.439 10.0831 53.4748 10.0524 53.493 10.0405C53.508 10.0307 53.531 10.02 53.5794 10.02V9.02C53.3557 9.02 53.1387 9.07732 52.9458 9.20351C52.756 9.3276 52.6157 9.5009 52.5135 9.69406L53.3973 10.1619ZM53.5794 10.02H55.5714V9.02H53.5794V10.02ZM55.5714 10.02C55.5796 10.02 55.584 10.0207 55.5854 10.0209C55.5868 10.0212 55.5859 10.0211 55.5837 10.0202C55.5814 10.0193 55.5792 10.0181 55.5775 10.017C55.5759 10.0159 55.576 10.0158 55.5778 10.0176L56.2849 9.31045C56.089 9.11455 55.8391 9.02 55.5714 9.02V10.02ZM55.6113 10.0481C55.6075 10.045 55.5953 10.0329 55.5854 10.0115C55.5757 9.9905 55.5754 9.9758 55.5754 9.976H56.5754C56.5754 9.70377 56.4646 9.45752 56.2515 9.27989L55.6113 10.0481ZM55.5754 9.976V21.496H56.5754V9.976H55.5754ZM55.5754 21.496C55.5754 21.5042 55.5747 21.5086 55.5744 21.5101C55.5742 21.5114 55.5742 21.5105 55.5751 21.5083C55.576 21.506 55.5772 21.5038 55.5784 21.5021C55.5794 21.5005 55.5796 21.5007 55.5778 21.5024L56.2849 22.2096C56.4808 22.0137 56.5754 21.7637 56.5754 21.496H55.5754ZM55.5778 21.5024C55.5786 21.5017 55.5804 21.5001 55.583 21.4984C55.5856 21.4967 55.5875 21.496 55.5878 21.4958C55.5886 21.4955 55.5774 21.5 55.5474 21.5V22.5C55.8145 22.5 56.0786 22.4159 56.2849 22.2096L55.5778 21.5024ZM55.5474 21.5H53.4834V22.5H55.5474V21.5ZM53.4834 21.5C53.4533 21.5 53.4421 21.4955 53.4429 21.4958C53.4433 21.496 53.4451 21.4967 53.4478 21.4984C53.4504 21.5001 53.4522 21.5017 53.4529 21.5024L52.7458 22.2096C52.9522 22.4159 53.2162 22.5 53.4834 22.5V21.5ZM53.4835 21.5359C53.4833 21.5357 53.4836 21.536 53.484 21.5367C53.4843 21.5373 53.4842 21.5373 53.4837 21.5359C53.4829 21.5334 53.4794 21.5216 53.4794 21.496H52.4794C52.4794 21.7382 52.5492 21.9768 52.7153 22.1761L53.4835 21.5359ZM53.4794 21.496V12.784H52.4794V21.496H53.4794ZM52.8952 13.2769L53.8792 13.4449L54.0475 12.4591L53.0635 12.2911L52.8952 13.2769ZM53.5238 12.7137L49.9718 19.2657L50.8509 19.7423L54.4029 13.1903L53.5238 12.7137ZM49.9743 19.2612C49.912 19.3733 49.8366 19.4805 49.7471 19.5827L50.4997 20.2413C50.6342 20.0875 50.7508 19.9227 50.8485 19.7468L49.9743 19.2612ZM49.7698 19.5584C49.7695 19.5588 49.769 19.5593 49.7676 19.5601C49.7662 19.561 49.7621 19.5633 49.7542 19.5661C49.7378 19.5718 49.7034 19.58 49.6434 19.58V20.58C49.9408 20.58 50.2445 20.498 50.4769 20.2656L49.7698 19.5584ZM49.6434 19.58H48.8514V20.58H49.6434V19.58ZM48.8514 19.58C48.8037 19.58 48.7777 19.573 48.7662 19.5688C48.7565 19.5653 48.7526 19.5621 48.7489 19.5584L48.0418 20.2656C48.2669 20.4906 48.5568 20.58 48.8514 20.58V19.58ZM48.7489 19.5584C48.6795 19.489 48.6136 19.3985 48.5546 19.2804L47.6602 19.7276C47.7611 19.9295 47.8873 20.111 48.0418 20.2656L48.7489 19.5584ZM48.5448 19.2619L45.0648 12.9739L44.1899 13.4581L47.6699 19.7461L48.5448 19.2619ZM44.7054 13.7099L45.6174 13.5659L45.4614 12.5781L44.5494 12.7221L44.7054 13.7099ZM45.0394 13.072V21.496H46.0394V13.072H45.0394ZM45.0394 21.496C45.0394 21.5042 45.0387 21.5086 45.0384 21.5101C45.0382 21.5114 45.0382 21.5105 45.0391 21.5083C45.04 21.506 45.0412 21.5038 45.0424 21.5021C45.0434 21.5005 45.0436 21.5007 45.0418 21.5024L45.7489 22.2096C45.9448 22.0137 46.0394 21.7637 46.0394 21.496H45.0394ZM45.0418 21.5024C45.04 21.5042 45.0399 21.5041 45.0415 21.503C45.0432 21.5019 45.0454 21.5007 45.0477 21.4998C45.0499 21.4989 45.0508 21.4988 45.0494 21.4991C45.048 21.4993 45.0436 21.5 45.0354 21.5V22.5C45.3031 22.5 45.553 22.4055 45.7489 22.2096L45.0418 21.5024ZM45.0354 21.5H42.9714V22.5H45.0354V21.5ZM62.2944 21.472L62.0652 21.9165L62.0735 21.9206L62.2944 21.472ZM59.9424 19.24L59.5056 19.4834L59.5074 19.4865L59.9424 19.24ZM59.0304 15.736L58.5304 15.7482L58.5309 15.7595L59.0304 15.736ZM59.0304 11.464L58.5308 11.4402L58.5305 11.4524L59.0304 11.464ZM59.9424 7.984L59.5087 7.73514L59.5056 7.74057L59.9424 7.984ZM62.3184 5.752L62.542 6.19922L62.5447 6.19783L62.3184 5.752ZM71.2224 6.592L70.9003 6.9745L70.9063 6.97943L71.2224 6.592ZM72.6384 8.344L73.0856 8.12039V8.12039L72.6384 8.344ZM73.1664 10.528L72.6665 10.5382L72.6669 10.5608L72.6694 10.5832L73.1664 10.528ZM73.0224 10.888L72.697 10.5084L72.6824 10.5209L72.6688 10.5344L73.0224 10.888ZM69.9504 10.912L69.625 11.2916L69.6418 11.306L69.6598 11.3189L69.9504 10.912ZM69.7104 10.456L70.1976 10.3436L70.1963 10.3382L69.7104 10.456ZM68.3904 8.296L68.6524 7.87017V7.87017L68.3904 8.296ZM63.4944 8.632L63.8339 8.99908L63.8387 8.9945L63.4944 8.632ZM62.4624 11.584L62.962 11.6023L62.9621 11.6014L62.4624 11.584ZM62.4624 15.616L62.9621 15.5986L62.4624 15.616ZM63.4944 18.592L63.15 18.9545L63.1549 18.959L63.4944 18.592ZM68.3904 18.904L68.6525 19.3299L68.6602 19.3249L68.3904 18.904ZM69.7104 16.744L70.1959 16.8635L70.1977 16.8562L70.1993 16.8488L69.7104 16.744ZM69.9504 16.288L69.6598 15.8811V15.8811L69.9504 16.288ZM73.0224 16.312L72.6688 16.6656L72.6824 16.6791L72.697 16.6916L73.0224 16.312ZM73.1664 16.672L72.6694 16.6168L72.6669 16.6392L72.6665 16.6618L73.1664 16.672ZM72.6384 18.856L73.0856 19.0796L72.6384 18.856ZM71.2224 20.632L71.5385 21.0195L71.5444 21.0145L71.2224 20.632ZM69.0144 21.808L68.8563 21.3337L69.0144 21.808ZM66.0864 21.74C64.6539 21.74 63.4699 21.4934 62.5152 21.0234L62.0735 21.9206C63.1989 22.4746 64.5428 22.74 66.0864 22.74V21.74ZM62.5235 21.0276C61.5819 20.5421 60.8713 19.8651 60.3774 18.9935L59.5074 19.4865C60.1015 20.5349 60.9589 21.3459 62.0652 21.9164L62.5235 21.0276ZM60.3791 18.9966C59.8801 18.1012 59.591 17.0119 59.5298 15.7125L58.5309 15.7595C58.5978 17.1801 58.9167 18.4268 59.5056 19.4834L60.3791 18.9966ZM59.5302 15.7238C59.5143 15.0724 59.5064 14.3725 59.5064 13.624H58.5064C58.5064 14.3795 58.5144 15.0876 58.5305 15.7482L59.5302 15.7238ZM59.5064 13.624C59.5064 12.8755 59.5143 12.1594 59.5302 11.4756L58.5305 11.4524C58.5144 12.1446 58.5064 12.8685 58.5064 13.624H59.5064ZM59.5298 11.4878C59.5909 10.2053 59.8796 9.12364 60.3791 8.22743L59.5056 7.74057C58.9172 8.79636 58.5979 10.0347 58.5309 11.4402L59.5298 11.4878ZM60.3761 8.23283C60.8862 7.34376 61.6044 6.66802 62.542 6.19921L62.0948 5.30479C60.9844 5.85998 60.1186 6.67224 59.5087 7.73516L60.3761 8.23283ZM62.5447 6.19783C63.4986 5.71354 64.6729 5.46 66.0864 5.46V4.46C64.5558 4.46 63.2181 4.73446 62.092 5.30617L62.5447 6.19783ZM66.0864 5.46C67.1308 5.46 68.0521 5.59827 68.8563 5.86634L69.1725 4.91766C68.2487 4.60973 67.218 4.46 66.0864 4.46V5.46ZM68.8563 5.86634C69.6689 6.13724 70.3472 6.50866 70.9003 6.97445L71.5444 6.20954C70.8816 5.65134 70.0878 5.22276 69.1725 4.91766L68.8563 5.86634ZM70.9063 6.97943C71.462 7.43275 71.8882 7.96169 72.1912 8.56761L73.0856 8.12039C72.7165 7.38231 72.1988 6.74325 71.5384 6.20457L70.9063 6.97943ZM72.1912 8.56761C72.4925 9.17035 72.6519 9.82504 72.6665 10.5382L73.6663 10.5178C73.6488 9.66296 73.4562 8.86165 73.0856 8.12039L72.1912 8.56761ZM72.6694 10.5832C72.6695 10.5835 72.668 10.5656 72.6781 10.5403C72.6881 10.5154 72.7005 10.5054 72.697 10.5084L73.3478 11.2676C73.5826 11.0663 73.698 10.7847 73.6633 10.4728L72.6694 10.5832ZM72.6688 10.5344C72.667 10.5362 72.6669 10.5361 72.6685 10.535C72.6702 10.5339 72.6724 10.5327 72.6747 10.5318C72.6769 10.5309 72.6778 10.5308 72.6764 10.5311C72.675 10.5313 72.6706 10.532 72.6624 10.532V11.532C72.9301 11.532 73.18 11.4375 73.3759 11.2416L72.6688 10.5344ZM72.6624 10.532H70.3824V11.532H72.6624V10.532ZM70.3824 10.532C70.2815 10.532 70.2472 10.5096 70.241 10.5051L69.6598 11.3189C69.8775 11.4744 70.1313 11.532 70.3824 11.532V10.532ZM70.2758 10.5324C70.2739 10.5308 70.2319 10.4923 70.1976 10.3436L69.2232 10.5684C69.2849 10.8357 69.4029 11.1012 69.625 11.2916L70.2758 10.5324ZM70.1963 10.3382C69.9241 9.2154 69.433 8.35054 68.6524 7.87017L68.1283 8.72183C68.5957 9.00946 68.9846 9.5846 69.2244 10.5738L70.1963 10.3382ZM68.6524 7.87017C67.9311 7.4263 67.0585 7.22 66.0624 7.22V8.22C66.9223 8.22 67.6016 8.39769 68.1283 8.72183L68.6524 7.87017ZM66.0624 7.22C64.8913 7.22 63.9021 7.55505 63.15 8.2695L63.8387 8.9945C64.3667 8.49295 65.0895 8.22 66.0624 8.22V7.22ZM63.1549 8.26495C62.3731 8.98804 62.0127 10.1321 61.9627 11.5666L62.9621 11.6014C63.008 10.2839 63.3356 9.45996 63.8339 8.99905L63.1549 8.26495ZM61.9627 11.5657C61.9143 12.8902 61.9143 14.2461 61.9627 15.6334L62.9621 15.5986C62.9145 14.2339 62.9145 12.9018 62.962 11.6023L61.9627 11.5657ZM61.9627 15.6334C62.0128 17.0693 62.3736 18.2169 63.15 18.9545L63.8387 18.2295C63.3351 17.7511 63.008 16.9147 62.9621 15.5986L61.9627 15.6334ZM63.1549 18.959C63.9073 19.6551 64.8948 19.98 66.0624 19.98V18.98C65.0859 18.98 64.3614 18.7129 63.8339 18.225L63.1549 18.959ZM66.0624 19.98C67.0585 19.98 67.9311 19.7737 68.6524 19.3298L68.1283 18.4782C67.6016 18.8023 66.9223 18.98 66.0624 18.98V19.98ZM68.6602 19.3249C69.4319 18.8303 69.9228 17.9728 70.1959 16.8635L69.2249 16.6245C68.9859 17.5952 68.5969 18.1777 68.1205 18.4831L68.6602 19.3249ZM70.1993 16.8488C70.2167 16.7675 70.2358 16.7196 70.2488 16.6949C70.2613 16.6712 70.2623 16.6797 70.241 16.6949L69.6598 15.8811C69.3973 16.0686 69.2794 16.369 69.2215 16.6392L70.1993 16.8488ZM70.241 16.6949C70.2472 16.6904 70.2815 16.668 70.3824 16.668V15.668C70.1313 15.668 69.8775 15.7256 69.6598 15.8811L70.241 16.6949ZM70.3824 16.668H72.6624V15.668H70.3824V16.668ZM72.6624 16.668C72.6706 16.668 72.675 16.6687 72.6764 16.6689C72.6778 16.6692 72.6769 16.6691 72.6747 16.6682C72.6724 16.6673 72.6702 16.6661 72.6685 16.665C72.6669 16.6639 72.667 16.6638 72.6688 16.6656L73.3759 15.9584C73.18 15.7625 72.9301 15.668 72.6624 15.668V16.668ZM72.697 16.6916C72.7005 16.6946 72.6881 16.6846 72.6781 16.6597C72.668 16.6344 72.6695 16.6165 72.6694 16.6168L73.6633 16.7272C73.698 16.4153 73.5826 16.1337 73.3478 15.9324L72.697 16.6916ZM72.6665 16.6618C72.6519 17.375 72.4925 18.0297 72.1912 18.6324L73.0856 19.0796C73.4562 18.3383 73.6488 17.537 73.6663 16.6822L72.6665 16.6618ZM72.1912 18.6324C71.8874 19.24 71.4593 19.7788 70.9003 20.2495L71.5444 21.0145C72.2015 20.4612 72.7174 19.816 73.0856 19.0796L72.1912 18.6324ZM70.9063 20.2446C70.3522 20.6966 69.6719 21.0618 68.8563 21.3337L69.1725 22.2823C70.0849 21.9782 70.8766 21.5594 71.5384 21.0194L70.9063 20.2446ZM68.8563 21.3337C68.0521 21.6017 67.1308 21.74 66.0864 21.74V22.74C67.218 22.74 68.2487 22.5903 69.1725 22.2823L68.8563 21.3337ZM79.1086 21.832L78.729 22.1574L78.7415 22.172L78.7551 22.1856L79.1086 21.832ZM78.9646 12.064H79.4646V11.564H78.9646V12.064ZM74.6206 11.896L74.241 12.2214L74.2535 12.236L74.2671 12.2496L74.6206 11.896ZM74.6206 9.688L74.2671 9.33445L74.2535 9.34802L74.241 9.3626L74.6206 9.688ZM86.3806 11.896L86.7342 12.2496V12.2496L86.3806 11.896ZM82.0606 12.064V11.564H81.5606V12.064H82.0606ZM81.8926 21.832L82.2462 22.1856L81.8926 21.832ZM79.5406 21.5C79.4811 21.5 79.4696 21.4858 79.4622 21.4784L78.7551 22.1856C78.9717 22.4022 79.2482 22.5 79.5406 22.5V21.5ZM79.4883 21.5066C79.4767 21.4932 79.4646 21.4755 79.4646 21.424H78.4646C78.4646 21.6925 78.5485 21.9468 78.729 22.1574L79.4883 21.5066ZM79.4646 21.424V12.064H78.4646V21.424H79.4646ZM78.9646 11.564H75.0526V12.564H78.9646V11.564ZM75.0526 11.564C74.9931 11.564 74.9816 11.5498 74.9742 11.5424L74.2671 12.2496C74.4837 12.4662 74.7602 12.564 75.0526 12.564V11.564ZM75.0003 11.5706C74.9887 11.5572 74.9766 11.5395 74.9766 11.488H73.9766C73.9766 11.7565 74.0605 12.0108 74.241 12.2214L75.0003 11.5706ZM74.9766 11.488V10.096H73.9766V11.488H74.9766ZM74.9766 10.096C74.9766 10.0445 74.9887 10.0268 75.0003 10.0134L74.241 9.3626C74.0605 9.57317 73.9766 9.82754 73.9766 10.096H74.9766ZM74.9742 10.0416C74.9816 10.0342 74.9931 10.02 75.0526 10.02V9.02C74.7602 9.02 74.4837 9.11784 74.2671 9.33445L74.9742 10.0416ZM75.0526 10.02H85.9486V9.02H75.0526V10.02ZM85.9486 10.02C86.0082 10.02 86.0197 10.0342 86.0271 10.0416L86.7342 9.33445C86.5176 9.11784 86.2411 9.02 85.9486 9.02V10.02ZM86.0271 10.0416C86.04 10.0545 86.0433 10.062 86.0443 10.0644C86.0453 10.0669 86.0486 10.0755 86.0486 10.096H87.0486C87.0486 9.8049 86.941 9.54128 86.7342 9.33445L86.0271 10.0416ZM86.0486 10.096V11.488H87.0486V10.096H86.0486ZM86.0486 11.488C86.0486 11.5085 86.0453 11.5171 86.0443 11.5196C86.0433 11.522 86.04 11.5295 86.0271 11.5424L86.7342 12.2496C86.941 12.0427 87.0486 11.7791 87.0486 11.488H86.0486ZM86.0271 11.5424C86.0197 11.5498 86.0082 11.564 85.9486 11.564V12.564C86.2411 12.564 86.5176 12.4662 86.7342 12.2496L86.0271 11.5424ZM85.9486 11.564H82.0606V12.564H85.9486V11.564ZM81.5606 12.064V21.424H82.5606V12.064H81.5606ZM81.5606 21.424C81.5606 21.4445 81.5573 21.4531 81.5563 21.4556C81.5553 21.458 81.552 21.4655 81.5391 21.4784L82.2462 22.1856C82.453 21.9787 82.5606 21.7151 82.5606 21.424H81.5606ZM81.5391 21.4784C81.5261 21.4914 81.5186 21.4947 81.5163 21.4957C81.5138 21.4967 81.5051 21.5 81.4846 21.5V22.5C81.7757 22.5 82.0393 22.3924 82.2462 22.1856L81.5391 21.4784ZM81.4846 21.5H79.5406V22.5H81.4846V21.5ZM88.9312 26.392L89.2847 26.0384L89.2712 26.0249L89.2566 26.0124L88.9312 26.392ZM88.9312 24.184L88.6058 23.8044L88.5912 23.8169L88.5776 23.8304L88.9312 24.184ZM90.8752 23.848L91.1372 24.2738L90.8752 23.848ZM91.4512 23.2L91.0244 22.9392L91.0185 22.9495L91.4512 23.2ZM92.0272 22L91.5654 21.8083L91.564 21.8118L92.0272 22ZM97.0192 9.976L96.572 9.75239L96.5641 9.76808L96.5574 9.78428L97.0192 9.976ZM97.2592 9.664L97.5793 10.0481L97.5967 10.0336L97.6127 10.0176L97.2592 9.664ZM99.8512 9.664L99.4976 10.0176L99.5112 10.0311L99.5258 10.0436L99.8512 9.664ZM99.9952 10.168L99.5208 10.0099L99.4952 10.0869V10.168H99.9952ZM99.9232 10.384L99.476 10.1604L99.4684 10.1754L99.462 10.191L99.9232 10.384ZM95.3632 21.28L94.9019 21.0869L94.8982 21.0962L95.3632 21.28ZM94.4752 23.248L94.0303 23.0198L94.0268 23.0266L94.0236 23.0335L94.4752 23.248ZM93.4432 24.952L93.0478 24.6459L93.0424 24.653L93.0372 24.6602L93.4432 24.952ZM92.1472 26.128L91.9067 25.6895L91.8961 25.6956L92.1472 26.128ZM92.4352 21.688L91.976 21.8859L92.3261 22.6982L92.8415 21.9793L92.4352 21.688ZM87.5632 10.384L87.0988 10.5698L87.104 10.5819L87.5632 10.384ZM87.4672 10.048L86.9702 9.99278L86.9672 10.0203V10.048H87.4672ZM87.6352 9.688L87.9887 10.0416L88.0023 10.028L88.0148 10.0134L87.6352 9.688ZM90.3232 9.664L89.9391 9.98409L89.9536 10.0015L89.9696 10.0176L90.3232 9.664ZM90.5392 9.976L91.0026 9.78797L90.9988 9.77904L90.5392 9.976ZM94.2592 19.144L94.6655 19.4353L94.8261 19.2114L94.7225 18.956L94.2592 19.144ZM89.3392 26.06C89.3187 26.06 89.3101 26.0567 89.3076 26.0557C89.3052 26.0547 89.2977 26.0514 89.2847 26.0384L88.5776 26.7456C88.7845 26.9524 89.0481 27.06 89.3392 27.06V26.06ZM89.2566 26.0124C89.2575 26.0132 89.2599 26.0155 89.2627 26.0192C89.2654 26.023 89.2669 26.0262 89.2675 26.0276C89.2688 26.0306 89.2632 26.0193 89.2632 25.984H88.2632C88.2632 26.275 88.3614 26.5622 88.6058 26.7716L89.2566 26.0124ZM89.2632 25.984V24.616H88.2632V25.984H89.2632ZM89.2632 24.616C89.2632 24.5565 89.2773 24.545 89.2847 24.5376L88.5776 23.8304C88.361 24.047 88.2632 24.3235 88.2632 24.616H89.2632ZM89.2566 24.5636C89.27 24.5521 89.2877 24.54 89.3392 24.54V23.54C89.0707 23.54 88.8164 23.6239 88.6058 23.8044L89.2566 24.5636ZM89.3392 24.54H90.0832V23.54H89.3392V24.54ZM90.0832 24.54C90.4676 24.54 90.8295 24.4632 91.1372 24.2738L90.6131 23.4222C90.5049 23.4888 90.3387 23.54 90.0832 23.54V24.54ZM91.1372 24.2738C91.4399 24.0876 91.6834 23.7968 91.8839 23.4505L91.0185 22.9495C90.867 23.2112 90.7265 23.3524 90.6131 23.4222L91.1372 24.2738ZM91.8778 23.4607C92.074 23.1397 92.2778 22.7116 92.4904 22.1882L91.564 21.8118C91.3606 22.3124 91.1804 22.6843 91.0245 22.9393L91.8778 23.4607ZM92.489 22.1917L97.481 10.1677L96.5574 9.78428L91.5654 21.8083L92.489 22.1917ZM97.4664 10.1996C97.504 10.1244 97.5434 10.078 97.5793 10.0481L96.9391 9.27989C96.783 9.41001 96.6624 9.57161 96.572 9.75239L97.4664 10.1996ZM97.6127 10.0176C97.5997 10.0306 97.5902 10.0327 97.5973 10.0303C97.6069 10.0272 97.6354 10.02 97.6912 10.02V9.02C97.4221 9.02 97.1285 9.08761 96.9056 9.31045L97.6127 10.0176ZM97.6912 10.02H99.5152V9.02H97.6912V10.02ZM99.5152 10.02C99.5158 10.02 99.5139 10.02 99.5101 10.0193C99.5063 10.0185 99.5022 10.0173 99.4982 10.0156C99.4943 10.0139 99.4921 10.0124 99.4916 10.0121C99.4912 10.0118 99.4933 10.0132 99.4976 10.0176L100.205 9.31045C100.021 9.12699 99.7845 9.02 99.5152 9.02V10.02ZM99.5258 10.0436C99.5401 10.0559 99.5366 10.0568 99.53 10.0436C99.5268 10.0372 99.5238 10.0293 99.5218 10.0206C99.5197 10.012 99.5192 10.0048 99.5192 10H100.519C100.519 9.70299 100.381 9.45926 100.177 9.28437L99.5258 10.0436ZM99.5192 10C99.5192 10.0114 99.5185 10.0175 99.5182 10.0193C99.518 10.021 99.5183 10.0174 99.5208 10.0099L100.47 10.3261C100.506 10.2157 100.519 10.1042 100.519 10H99.5192ZM99.4952 10.168C99.4952 10.1533 99.4961 10.1411 99.4971 10.1319C99.4982 10.1226 99.4994 10.1154 99.5004 10.1104C99.5023 10.101 99.5038 10.0971 99.5028 10.0999C99.502 10.1024 99.4997 10.1088 99.4951 10.1195C99.4906 10.1301 99.4843 10.1437 99.476 10.1604L100.37 10.6076C100.42 10.5077 100.495 10.3434 100.495 10.168H99.4952ZM99.462 10.191L94.9019 21.087L95.8244 21.473L100.384 10.577L99.462 10.191ZM94.8982 21.0962C94.6319 21.7699 94.3425 22.411 94.0303 23.0198L94.9201 23.4762C95.2479 22.837 95.5505 22.1661 95.8282 21.4638L94.8982 21.0962ZM94.0236 23.0335C93.733 23.6451 93.4072 24.1817 93.0478 24.6459L93.8385 25.2581C94.2472 24.7303 94.6094 24.1309 94.9268 23.4625L94.0236 23.0335ZM93.0372 24.6602C92.7077 25.1186 92.3302 25.4574 91.9068 25.6896L92.3876 26.5664C92.9562 26.2546 93.4427 25.8094 93.8492 25.2438L93.0372 24.6602ZM91.8961 25.6956C91.4886 25.9322 90.9943 26.06 90.3952 26.06V27.06C91.1401 27.06 91.8138 26.8998 92.3983 26.5604L91.8961 25.6956ZM90.3952 26.06H89.3392V27.06H90.3952V26.06ZM92.8944 21.4901L88.0224 10.1861L87.104 10.5819L91.976 21.8859L92.8944 21.4901ZM88.0274 10.1983C87.9991 10.1274 87.9816 10.0765 87.972 10.0426C87.9672 10.026 87.9655 10.0174 87.9651 10.0156C87.9646 10.0124 87.9672 10.0248 87.9672 10.048H86.9672C86.9672 10.1499 86.9903 10.2469 87.0104 10.3174C87.0327 10.3955 87.0633 10.4806 87.0989 10.5697L88.0274 10.1983ZM87.9641 10.1032C87.9685 10.0639 87.9786 10.0517 87.9887 10.0416L87.2816 9.33445C87.0998 9.51633 86.9979 9.74408 86.9702 9.99278L87.9641 10.1032ZM88.0148 10.0134C88.0187 10.0089 88.0201 10.008 88.0187 10.0092C88.0171 10.0104 88.0137 10.0127 88.0086 10.0151C88.0036 10.0175 87.9989 10.0189 87.9954 10.0196C87.9921 10.0203 87.9917 10.02 87.9952 10.02V9.02C87.7012 9.02 87.4439 9.14289 87.2556 9.36261L88.0148 10.0134ZM87.9952 10.02H89.9152V9.02H87.9952V10.02ZM89.9152 10.02C89.9427 10.02 89.9627 10.0217 89.9763 10.0237C89.9899 10.0257 89.9954 10.0277 89.9948 10.0275C89.9939 10.0272 89.9865 10.0244 89.9753 10.017C89.9639 10.0094 89.951 9.99845 89.9391 9.98409L90.7073 9.34391C90.4907 9.08404 90.1754 9.02 89.9152 9.02V10.02ZM89.9696 10.0176C90.0258 10.0737 90.0594 10.1257 90.0796 10.173L90.9988 9.77904C90.923 9.60226 90.8126 9.4463 90.6767 9.31045L89.9696 10.0176ZM90.0759 10.164L93.7959 19.332L94.7225 18.956L91.0025 9.78801L90.0759 10.164ZM93.8528 18.8527L92.0288 21.3967L92.8415 21.9793L94.6655 19.4353L93.8528 18.8527ZM101.251 24.472L100.897 24.8256L101.251 24.472ZM101.251 19.624L100.897 19.2704L101.251 19.624ZM102.859 18.808L102.431 18.5485L102.429 18.5531L102.859 18.808ZM103.459 16.792L103.954 16.8627L103.954 16.8615L103.459 16.792ZM103.819 9.688L104.172 10.0416V10.0416L103.819 9.688ZM113.179 9.688L112.799 10.0134L112.812 10.028L112.825 10.0416L113.179 9.688ZM113.347 19.432H112.847V19.932H113.347V19.432ZM114.835 19.6L114.455 19.9254L114.468 19.94L114.481 19.9536L114.835 19.6ZM114.835 24.472L114.481 24.1184L114.468 24.132L114.455 24.1466L114.835 24.472ZM112.027 24.472L111.673 24.8256L112.027 24.472ZM111.859 22H112.359V21.5H111.859V22ZM104.227 22V21.5H103.727V22H104.227ZM104.059 24.472L104.412 24.8256L104.059 24.472ZM105.547 19.456L105.136 19.1701L104.585 19.961L105.549 19.956L105.547 19.456ZM110.203 19.432L110.205 19.932L110.703 19.9294V19.432H110.203ZM110.203 12.064H110.703V11.564H110.203V12.064ZM106.675 12.064V11.564H106.175V12.064H106.675ZM106.387 17.248L105.897 17.1483L106.387 17.248ZM101.659 24.14C101.638 24.14 101.63 24.1367 101.627 24.1357C101.625 24.1347 101.617 24.1314 101.604 24.1184L100.897 24.8256C101.104 25.0324 101.368 25.14 101.659 25.14V24.14ZM101.604 24.1184C101.591 24.1055 101.588 24.098 101.587 24.0956C101.586 24.0931 101.583 24.0845 101.583 24.064H100.583C100.583 24.3551 100.69 24.6187 100.897 24.8256L101.604 24.1184ZM101.583 24.064V20.032H100.583V24.064H101.583ZM101.583 20.032C101.583 20.0115 101.586 20.0029 101.587 20.0004C101.588 19.998 101.591 19.9905 101.604 19.9776L100.897 19.2704C100.69 19.4773 100.583 19.7409 100.583 20.032H101.583ZM101.604 19.9776C101.617 19.9646 101.625 19.9613 101.627 19.9603C101.63 19.9593 101.638 19.956 101.659 19.956V18.956C101.368 18.956 101.104 19.0636 100.897 19.2704L101.604 19.9776ZM101.659 19.956H101.851V18.956H101.659V19.956ZM101.851 19.956C102.482 19.956 102.965 19.6099 103.289 19.0629L102.429 18.5531C102.241 18.8701 102.051 18.956 101.851 18.956V19.956ZM103.286 19.0675C103.61 18.5343 103.822 17.784 103.954 16.8627L102.964 16.7213C102.839 17.592 102.652 18.1857 102.431 18.5485L103.286 19.0675ZM103.954 16.8615C104.086 15.918 104.151 14.7408 104.151 13.336H103.151C103.151 14.7152 103.087 15.842 102.964 16.7225L103.954 16.8615ZM104.151 13.336V10.096H103.151V13.336H104.151ZM104.151 10.096C104.151 10.0755 104.154 10.0669 104.155 10.0644C104.156 10.062 104.159 10.0545 104.172 10.0416L103.465 9.33445C103.258 9.54128 103.151 9.8049 103.151 10.096H104.151ZM104.172 10.0416C104.185 10.0286 104.193 10.0253 104.195 10.0243C104.198 10.0233 104.206 10.02 104.227 10.02V9.02C103.936 9.02 103.672 9.12761 103.465 9.33445L104.172 10.0416ZM104.227 10.02H112.771V9.02H104.227V10.02ZM112.771 10.02C112.806 10.02 112.817 10.0256 112.814 10.0243C112.813 10.0237 112.81 10.0222 112.806 10.0195C112.802 10.0167 112.8 10.0143 112.799 10.0134L113.558 9.36261C113.349 9.11823 113.062 9.02 112.771 9.02V10.02ZM112.825 10.0416C112.838 10.0545 112.841 10.062 112.842 10.0644C112.843 10.0669 112.847 10.0755 112.847 10.096H113.847C113.847 9.8049 113.739 9.54128 113.532 9.33444L112.825 10.0416ZM112.847 10.096V19.432H113.847V10.096H112.847ZM113.347 19.932H114.427V18.932H113.347V19.932ZM114.427 19.932C114.462 19.932 114.473 19.9376 114.47 19.9363C114.469 19.9357 114.466 19.9342 114.462 19.9315C114.458 19.9287 114.456 19.9263 114.455 19.9254L115.214 19.2746C115.005 19.0302 114.718 18.932 114.427 18.932V19.932ZM114.481 19.9536C114.494 19.9665 114.497 19.974 114.498 19.9764C114.499 19.9789 114.503 19.9875 114.503 20.008H115.503C115.503 19.7169 115.395 19.4533 115.188 19.2464L114.481 19.9536ZM114.503 20.008V24.064H115.503V20.008H114.503ZM114.503 24.064C114.503 24.0845 114.499 24.0931 114.498 24.0956C114.497 24.098 114.494 24.1055 114.481 24.1184L115.188 24.8256C115.395 24.6187 115.503 24.3551 115.503 24.064H114.503ZM114.455 24.1466C114.456 24.1457 114.458 24.1433 114.462 24.1405C114.466 24.1378 114.469 24.1363 114.47 24.1357C114.473 24.1344 114.462 24.14 114.427 24.14V25.14C114.718 25.14 115.005 25.0418 115.214 24.7974L114.455 24.1466ZM114.427 24.14H112.435V25.14H114.427V24.14ZM112.435 24.14C112.414 24.14 112.406 24.1367 112.403 24.1357C112.401 24.1347 112.393 24.1314 112.38 24.1184L111.673 24.8256C111.88 25.0324 112.144 25.14 112.435 25.14V24.14ZM112.38 24.1184C112.367 24.1055 112.364 24.098 112.363 24.0956C112.362 24.0931 112.359 24.0845 112.359 24.064H111.359C111.359 24.3551 111.466 24.6187 111.673 24.8256L112.38 24.1184ZM112.359 24.064V22H111.359V24.064H112.359ZM111.859 21.5H104.227V22.5H111.859V21.5ZM103.727 22V24.064H104.727V22H103.727ZM103.727 24.064C103.727 24.0845 103.723 24.0931 103.722 24.0956C103.721 24.098 103.718 24.1055 103.705 24.1184L104.412 24.8256C104.619 24.6187 104.727 24.3551 104.727 24.064H103.727ZM103.705 24.1184C103.692 24.1314 103.685 24.1347 103.682 24.1357C103.68 24.1367 103.671 24.14 103.651 24.14V25.14C103.942 25.14 104.205 25.0324 104.412 24.8256L103.705 24.1184ZM103.651 24.14H101.659V25.14H103.651V24.14ZM105.549 19.956L110.205 19.932L110.2 18.932L105.544 18.956L105.549 19.956ZM110.703 19.432V12.064H109.703V19.432H110.703ZM110.203 11.564H106.675V12.564H110.203V11.564ZM106.175 12.064V13.672H107.175V12.064H106.175ZM106.175 13.672C106.175 15.0932 106.08 16.249 105.897 17.1483L106.877 17.3477C107.078 16.359 107.175 15.1308 107.175 13.672H106.175ZM105.897 17.1483C105.712 18.0556 105.451 18.7188 105.136 19.1701L105.957 19.7419C106.378 19.1372 106.677 18.3284 106.877 17.3477L105.897 17.1483Z" fill="white"/>
</svg>
