<svg width="28" height="28" viewBox="0 0 28 28" fill="none" xmlns="http://www.w3.org/2000/svg">
<path d="M24.6326 6.4162H20.5845V6.00032C20.5845 4.14233 19.0766 2.6344 17.2186 2.6344H10.7807C8.92194 2.6344 7.41476 4.14233 7.41476 6.00032V6.4162H3.36592C1.50719 6.4162 0 7.92339 0 9.78213V21.9997C0 23.8577 1.50719 25.3656 3.36592 25.3656H24.6341C26.4928 25.3656 28 23.8577 28 21.9997V9.78213C27.9985 7.92264 26.4913 6.4162 24.6326 6.4162ZM13.9985 21.874C10.492 21.874 7.64065 19.0227 7.64065 15.5162C7.64065 12.0104 10.492 9.15831 13.9985 9.15831C17.5051 9.15831 20.3564 12.0096 20.3564 15.5162C20.3564 19.0227 17.5043 21.874 13.9985 21.874ZM17.3644 15.5162C17.3644 17.3704 15.8535 18.8821 13.9985 18.8821C12.1435 18.8821 10.6326 17.3704 10.6326 15.5162C10.6326 13.6612 12.1435 12.1502 13.9985 12.1502C15.8535 12.1502 17.3644 13.6612 17.3644 15.5162Z" fill="#606060"/>
</svg>
