<svg width="41" height="40" viewBox="0 0 41 40" fill="none" xmlns="http://www.w3.org/2000/svg">
<path fill-rule="evenodd" clip-rule="evenodd" d="M20.5508 4.83329C12.2205 4.83329 5.46745 11.5863 5.46745 19.9166C5.46745 28.2469 12.2205 35 20.5508 35C28.8811 35 35.6341 28.2469 35.6341 19.9166C35.6341 11.5863 28.8811 4.83329 20.5508 4.83329ZM2.30078 19.9166C2.30078 9.83743 10.4716 1.66663 20.5508 1.66663C30.63 1.66663 38.8008 9.83743 38.8008 19.9166C38.8008 29.9958 30.63 38.1666 20.5508 38.1666C10.4716 38.1666 2.30078 29.9958 2.30078 19.9166ZM29.1704 13.797C29.7887 14.4154 29.7887 15.4179 29.1704 16.0362L19.1704 26.0362C18.552 26.6545 17.5495 26.6545 16.9312 26.0362L11.9312 21.0362C11.3129 20.4179 11.3129 19.4154 11.9312 18.797C12.5495 18.1787 13.552 18.1787 14.1704 18.797L18.0508 22.6775L26.9312 13.797C27.5495 13.1787 28.552 13.1787 29.1704 13.797Z" fill="#0AA257"/>
</svg>
