<svg width="28" height="28" viewBox="0 0 28 28" fill="none" xmlns="http://www.w3.org/2000/svg">
<path d="M9.33331 19.8333L14 24.5L18.6666 19.8333" stroke="#606060" stroke-width="2" stroke-linecap="round" stroke-linejoin="round"/>
<path d="M14 14V24.5" stroke="#606060" stroke-width="2" stroke-linecap="round" stroke-linejoin="round"/>
<path d="M24.36 21.105C25.3743 20.3918 26.1349 19.3739 26.5315 18.199C26.9281 17.0242 26.94 15.7535 26.5654 14.5715C26.1909 13.3894 25.4495 12.3575 24.4487 11.6253C23.448 10.8932 22.24 10.499 21 10.5H19.53C19.1791 9.13253 18.5226 7.86247 17.6098 6.78544C16.697 5.70841 15.5518 4.85248 14.2604 4.28209C12.969 3.7117 11.565 3.44171 10.1541 3.49245C8.74323 3.54319 7.36225 3.91333 6.11513 4.57501C4.86801 5.23669 3.78725 6.17267 2.9542 7.31248C2.12116 8.45229 1.55754 9.76623 1.30579 11.1554C1.05403 12.5445 1.12069 13.9727 1.50076 15.3324C1.88082 16.692 2.56439 17.9478 3.49998 19.005" stroke="#606060" stroke-width="2" stroke-linecap="round" stroke-linejoin="round"/>
</svg>
