<svg width="28" height="28" viewBox="0 0 28 28" fill="none" xmlns="http://www.w3.org/2000/svg">
<path d="M19.8333 3.50001C20.1397 3.19359 20.5035 2.95052 20.9039 2.78469C21.3042 2.61886 21.7333 2.53351 22.1666 2.53351C22.6 2.53351 23.0291 2.61886 23.4294 2.78469C23.8298 2.95052 24.1936 3.19359 24.5 3.50001C24.8064 3.80642 25.0495 4.17019 25.2153 4.57055C25.3811 4.9709 25.4665 5.4 25.4665 5.83334C25.4665 6.26668 25.3811 6.69578 25.2153 7.09613C25.0495 7.49648 24.8064 7.86026 24.5 8.16667L8.74998 23.9167L2.33331 25.6667L4.08331 19.25L19.8333 3.50001Z" stroke="#606060" stroke-width="2" stroke-linecap="round" stroke-linejoin="round"/>
</svg>
