<svg width="24" height="24" viewBox="0 0 24 24" fill="none" xmlns="http://www.w3.org/2000/svg">
<path fill-rule="evenodd" clip-rule="evenodd" d="M11.95 2.9C6.95182 2.9 2.9 6.95182 2.9 11.95C2.9 16.9482 6.95182 21 11.95 21C16.9482 21 21 16.9482 21 11.95C21 6.95182 16.9482 2.9 11.95 2.9ZM1 11.95C1 5.90248 5.90248 1 11.95 1C17.9975 1 22.9 5.90248 22.9 11.95C22.9 17.9975 17.9975 22.9 11.95 22.9C5.90248 22.9 1 17.9975 1 11.95Z" fill="#D92D20"/>
<path fill-rule="evenodd" clip-rule="evenodd" d="M7.86863 7.86863C8.18105 7.55621 8.68758 7.55621 9 7.86863L11.9343 10.8029L14.8686 7.86863C15.181 7.55621 15.6876 7.55621 16 7.86863C16.3124 8.18105 16.3124 8.68758 16 9L13.0657 11.9343L16 14.8686C16.3124 15.181 16.3124 15.6876 16 16C15.6876 16.3124 15.181 16.3124 14.8686 16L11.9343 13.0657L9 16C8.68758 16.3124 8.18105 16.3124 7.86863 16C7.55621 15.6876 7.55621 15.181 7.86863 14.8686L10.8029 11.9343L7.86863 9C7.55621 8.68758 7.55621 8.18105 7.86863 7.86863Z" fill="#D92D20"/>
</svg>
