<svg width="210" height="210" viewBox="0 0 210 210" fill="none" xmlns="http://www.w3.org/2000/svg">
<rect x="1" y="1" width="208" height="208" rx="104" fill="white" stroke="#007AFF" stroke-width="2"/>
<g clip-path="url(#clip0_1226_5289)">
<path d="M153.75 139.625C151.449 129.484 146.029 120.318 138.25 113.417C134.371 118.567 129.348 122.746 123.578 125.624C117.808 128.502 111.448 130 105 130C98.552 130 92.1921 128.502 86.422 125.624C80.6518 122.746 75.6291 118.567 71.75 113.417C63.9712 120.318 58.5506 129.484 56.25 139.625C55.8342 141.471 55.8354 143.386 56.2535 145.231C56.6715 147.077 57.4959 148.805 58.6667 150.292C59.8393 151.763 61.3288 152.95 63.0242 153.765C64.7196 154.581 66.5771 155.003 68.4583 155H141.542C143.423 155.003 145.28 154.581 146.976 153.765C148.671 152.95 150.161 151.763 151.333 150.292C152.504 148.805 153.328 147.077 153.747 145.231C154.165 143.386 154.166 141.471 153.75 139.625V139.625Z" fill="#007AFF"/>
<path d="M105 121.667C123.409 121.667 138.333 106.743 138.333 88.3333C138.333 69.9238 123.409 55 105 55C86.5905 55 71.6666 69.9238 71.6666 88.3333C71.6666 106.743 86.5905 121.667 105 121.667Z" fill="#007AFF"/>
</g>
<defs>
<clipPath id="clip0_1226_5289">
<rect x="55" y="55" width="100" height="100" rx="50" fill="white"/>
</clipPath>
</defs>
</svg>
