<svg width="28" height="28" viewBox="0 0 28 28" fill="none" xmlns="http://www.w3.org/2000/svg">
<path d="M21 7C20.7812 6.78128 20.4845 6.65842 20.1751 6.65842C19.8658 6.65842 19.5691 6.78128 19.3503 7L14 12.3503L8.64964 7C8.43086 6.78128 8.13416 6.65842 7.8248 6.65842C7.51545 6.65842 7.21875 6.78128 6.99997 7C6.78125 7.21878 6.65839 7.51548 6.65839 7.82483C6.65839 8.13419 6.78125 8.43089 6.99997 8.64967L12.3503 14L6.99997 19.3503C6.78125 19.5691 6.65839 19.8658 6.65839 20.1752C6.65839 20.4845 6.78125 20.7812 6.99997 21C7.21875 21.2187 7.51545 21.3416 7.8248 21.3416C8.13416 21.3416 8.43086 21.2187 8.64964 21L14 15.6497L19.3503 21C19.5691 21.2187 19.8658 21.3416 20.1751 21.3416C20.4845 21.3416 20.7812 21.2187 21 21C21.2187 20.7812 21.3416 20.4845 21.3416 20.1752C21.3416 19.8658 21.2187 19.5691 21 19.3503L15.6496 14L21 8.64967C21.2187 8.43089 21.3416 8.13419 21.3416 7.82483C21.3416 7.51548 21.2187 7.21878 21 7Z" fill="#606060"/>
</svg>
