<svg width="42" height="42" viewBox="0 0 42 42" fill="none" xmlns="http://www.w3.org/2000/svg">
<path d="M15.75 29.75H26.25M15.75 22.75H26.25M15.75 15.75H17.5M22.75 5.25H14.35C12.3898 5.25 11.4097 5.25 10.661 5.63148C10.0025 5.96703 9.46703 6.50246 9.13148 7.16104C8.75 7.90972 8.75 8.88982 8.75 10.85V31.15C8.75 33.1102 8.75 34.0904 9.13148 34.839C9.46703 35.4975 10.0025 36.033 10.661 36.3685C11.4097 36.75 12.3898 36.75 14.35 36.75H27.65C29.6102 36.75 30.5904 36.75 31.339 36.3685C31.9975 36.033 32.533 35.4975 32.8685 34.839C33.25 34.0904 33.25 33.1102 33.25 31.15V15.75M22.75 5.25L33.25 15.75M22.75 5.25V12.95C22.75 13.9301 22.75 14.4201 22.9408 14.7945C23.1086 15.1238 23.3762 15.3915 23.7055 15.5593C24.0798 15.75 24.5698 15.75 25.55 15.75H33.25" stroke="#606060" stroke-width="2" stroke-linecap="round" stroke-linejoin="round"/>
</svg>
