<svg width="28" height="28" viewBox="0 0 28 28" fill="none" xmlns="http://www.w3.org/2000/svg">
<path d="M8.16667 12.8333V8.16665C8.16667 6.61955 8.78125 5.13582 9.87521 4.04186C10.9692 2.94789 12.4529 2.33331 14 2.33331C15.5471 2.33331 17.0308 2.94789 18.1248 4.04186C19.2188 5.13582 19.8333 6.61955 19.8333 8.16665V12.8333M5.83333 12.8333H22.1667C23.4553 12.8333 24.5 13.878 24.5 15.1666V23.3333C24.5 24.622 23.4553 25.6666 22.1667 25.6666H5.83333C4.54467 25.6666 3.5 24.622 3.5 23.3333V15.1666C3.5 13.878 4.54467 12.8333 5.83333 12.8333Z" stroke="#606060" stroke-width="2" stroke-linecap="round" stroke-linejoin="round"/>
</svg>
