<svg width="19" height="19" viewBox="0 0 19 19" fill="none" xmlns="http://www.w3.org/2000/svg">
<path d="M2.375 2.375C1.06332 2.375 0 3.43832 0 4.75V14.25C0 15.5617 1.06332 16.625 2.375 16.625H16.625C17.9367 16.625 19 15.5617 19 14.25V4.75C19 3.43832 17.9367 2.375 16.625 2.375H2.375ZM1.58333 5.17369L8.18259 9.57319C8.98035 10.105 10.0197 10.105 10.8174 9.57319L17.4167 5.17369V14.25C17.4167 14.6872 17.0622 15.0417 16.625 15.0417H2.375C1.93777 15.0417 1.58333 14.6872 1.58333 14.25V5.17369ZM16.3853 3.95833L9.93914 8.25578C9.67322 8.43306 9.32678 8.43306 9.06086 8.25578L2.6147 3.95833H16.3853Z" fill="white"/>
</svg>
