<svg width="23" height="25" viewBox="0 0 23 25" fill="none" xmlns="http://www.w3.org/2000/svg">
<path d="M11.9792 7.87192C13.685 7.87192 14.3175 8.72192 14.375 9.97192H16.493C16.4259 8.25192 15.4196 6.67192 13.4167 6.16192V3.97192H10.5417V6.13192C10.0338 6.25192 9.55462 6.43192 9.12337 6.67192L10.5321 8.14192C10.925 7.97192 11.4042 7.87192 11.9792 7.87192ZM5.10795 5.03192L3.89087 6.30192L7.18754 9.74192C7.18754 11.8219 8.68254 12.9519 10.9346 13.6519L14.2984 17.1619C13.9725 17.6419 13.2921 18.0719 11.9792 18.0719C10.005 18.0719 9.22879 17.1519 9.12337 15.9719H7.01504C7.13004 18.1619 8.7017 19.3919 10.5417 19.8019V21.9719H13.4167V19.8219C14.3367 19.6419 15.1609 19.2719 15.7646 18.7019L17.8921 20.9219L19.1092 19.6519L5.10795 5.03192Z" fill="#05FB00" fill-opacity="0.87"/>
</svg>
