<svg xmlns="http://www.w3.org/2000/svg" xml:space="preserve" width="512" height="512" fill-rule="evenodd" viewBox="0 0 64 64">
  <path fill="#cadcf0" d="M14.387 32.075V8.71a1 1 0 0 1 1-1h22.554l11.446 12.692v15.953s.004 1.215-.097 3.083l-5.631-2.043a2 2 0 0 0-1.973.353l-3.032 2.563a2 2 0 0 1-1.841.396L30.839 39l5.769 4.121a2 2 0 0 0 2.412-.066l2.931-2.345a2 2 0 0 1 1.952-.311l5.176 1.941c-.397 4.314-1.309 9.971-3.398 13.483a1 1 0 0 1-.843.464c-3.827.003-26.548.003-32.899.003a1 1 0 0 1-.882-1.469c3.103-6.738 3.33-18.466 3.33-18.466v-1.311l4.388-1.645a2 2 0 0 1 1.951.311l2.932 2.345a2 2 0 0 0 2.412.066L31.839 32l-5.974 1.707a2 2 0 0 1-1.841-.396l-3.032-2.563a2 2 0 0 0-1.973-.353z" />
    <path fill="#a4bbdb" d="m48.579 42.153.501.2c-.397 4.314-1.309 9.976-3.399 13.49a1 1 0 0 1-.843.464c-3.827.003-26.548.003-32.899.003a1 1 0 0 1-.882-1.47l.039-.086c12.314.579 30.196-1.578 32.551-2.5 1.75-.685 3.818-5.465 4.932-10.101" />
    <g fill="#347bfa">
        <path d="M49.387 20.402c-3.035-1.199-6.25-1.233-9.549-.723a.997.997 0 0 1-1.146-1.091c.362-3.694-.003-7.308-.751-10.878 4.838 3.591 8.659 7.819 11.446 12.692M6.078 23.778l5 5.87a.999.999 0 1 0 1.522-1.296l-5-5.87a1 1 0 1 0-1.522 1.296m.054 8.726 3.549.951a1 1 0 0 0 .518-1.932l-3.549-.951a1 1 0 0 0-.518 1.932m-.471 8.225 6.678-3.856a1 1 0 0 0-1-1.732l-6.678 3.856a1 1 0 0 0 1 1.732m52.261 10.485-5-5.87a1 1 0 0 0-1.522 1.297l5 5.87a1 1 0 0 0 1.522-1.297m-.054-8.725-3.549-.951a1 1 0 0 0-.518 1.932l3.549.951a1 1 0 0 0 .518-1.932m.471-8.225-6.678 3.855a1 1 0 0 0 1 1.732l6.678-3.855a1 1 0 0 0-1-1.732M19.864 16.9l3.536 3.536a1 1 0 0 0 1.414-1.415l-3.536-3.535a1 1 0 0 0-1.414 1.414" />
        <path d="m23.4 15.486-3.536 3.535a1 1 0 0 0 1.414 1.415l3.536-3.536a1 1 0 0 0-1.414-1.414m7.464 1.414 3.536 3.536a1 1 0 0 0 1.414-1.415l-3.536-3.535a1 1 0 0 0-1.414 1.414" />
        <path d="m34.4 15.486-3.536 3.535a1 1 0 0 0 1.414 1.415l3.536-3.536a1 1 0 0 0-1.414-1.414M22.438 26.409l1.403-1.051 1.397 1.05a1 1 0 0 0 1.201 0l1.4-1.05 1.4 1.05a1 1 0 0 0 1.2 0l1.4-1.05 1.4 1.05a1 1 0 0 0 1.2-1.6l-1.999-1.5a1 1 0 0 0-1.2 0l-1.401 1.05-1.4-1.05a1 1 0 0 0-1.2 0l-1.4 1.05-1.396-1.049a1 1 0 0 0-1.2-.001l-2.003 1.5a1 1 0 0 0-.202 1.4c.331.441.958.532 1.4.201"/>
    </g>
</svg>