<svg width="39" height="39" viewBox="0 0 39 39" fill="none" xmlns="http://www.w3.org/2000/svg">
<g clip-path="url(#clip0_603_4066)">
<path d="M19.5183 16.1614C21.3803 16.1546 22.8633 14.6588 22.8565 12.7928C22.8498 10.926 21.3636 9.44059 19.5008 9.439C17.6224 9.437 16.1222 10.9499 16.1366 12.8335C16.1505 14.6927 17.6503 16.1681 19.5183 16.1614Z" fill="white"/>
<path d="M19.5 0C8.73041 0 0 8.73081 0 19.5C0 30.2692 8.73041 39 19.5 39C30.2696 39 39 30.2692 39 19.5C39 8.73081 30.2696 0 19.5 0ZM19.5279 5.93C23.3262 5.94037 26.3748 9.0472 26.3552 12.8874C26.3361 16.6389 23.2376 19.6795 19.4457 19.6668C15.6926 19.654 12.6145 16.5424 12.6368 12.7832C12.6579 8.98297 15.7376 5.91962 19.5279 5.93ZM27.221 22.3655C26.3812 23.2276 25.3701 23.8516 24.2474 24.2869C23.1861 24.6983 22.0231 24.9053 20.8717 25.0434C21.046 25.2325 21.1278 25.3255 21.2363 25.434C22.7987 27.0048 24.3687 28.5676 25.9259 30.1427C26.4566 30.6797 26.5671 31.3452 26.275 31.9688C25.9562 32.6511 25.2409 33.0995 24.5391 33.0513C24.0946 33.0205 23.7479 32.7999 23.4403 32.4899C22.2609 31.3033 21.0592 30.1379 19.9046 28.929C19.5674 28.5771 19.4062 28.6442 19.109 28.9498C17.9228 30.1714 16.7171 31.3736 15.5046 32.5693C14.96 33.1063 14.3121 33.2037 13.6801 32.8965C13.0086 32.5717 12.5817 31.8858 12.6145 31.196C12.6376 30.7308 12.8666 30.3741 13.1866 30.0557C14.7334 28.5121 16.2755 26.9637 17.8179 25.4164C17.9205 25.3139 18.0154 25.205 18.1642 25.0454C16.0604 24.8255 14.1633 24.3077 12.539 23.0377C12.3372 22.8797 12.1293 22.7273 11.9458 22.5502C11.2344 21.8675 11.163 21.0851 11.7251 20.28C12.2067 19.5906 13.0142 19.4062 13.8541 19.8024C14.0169 19.8786 14.1717 19.9752 14.3201 20.0773C17.3467 22.1572 21.5049 22.2142 24.5435 20.1703C24.8443 19.9405 25.1663 19.7514 25.5393 19.656C26.2639 19.4693 26.9405 19.7362 27.3291 20.3706C27.774 21.0955 27.7688 21.8025 27.221 22.3655Z" fill="white"/>
</g>
<defs>
<clipPath id="clip0_603_4066">
<rect width="39" height="39" fill="white"/>
</clipPath>
</defs>
</svg>
