<svg width="28" height="28" viewBox="0 0 28 28" fill="none" xmlns="http://www.w3.org/2000/svg">
<g opacity="0.3">
<path d="M14 17C15.6569 17 17 15.6569 17 14C17 12.3431 15.6569 11 14 11C12.3431 11 11 12.3431 11 14C11 15.6569 12.3431 17 14 17Z" fill="#606060"/>
<path d="M24.6626 13.0783C22.0591 9.98122 18.1182 7 14.0001 7C9.88111 7 5.93925 9.9833 3.33753 13.0783C2.88749 13.6134 2.88749 14.3903 3.33753 14.9255C3.99163 15.7036 5.36292 17.2057 7.19441 18.5181C11.807 21.8237 16.183 21.8309 20.8057 18.5181C22.6372 17.2057 24.0085 15.7036 24.6626 14.9255C25.1113 14.3914 25.1136 13.6152 24.6626 13.0783ZM14.0001 9.33396C16.6148 9.33396 18.7418 11.4279 18.7418 14.0019C18.7418 16.5759 16.6148 18.6698 14.0001 18.6698C11.3853 18.6698 9.25833 16.5759 9.25833 14.0019C9.25833 11.4279 11.3853 9.33396 14.0001 9.33396Z" fill="#606060"/>
</g>
</svg>
