<svg width="19" height="19" viewBox="0 0 19 19" fill="none" xmlns="http://www.w3.org/2000/svg">
<g clip-path="url(#clip0_848_1345)">
<path d="M2.07589 7.07435C1.10847 5.56052 1.61865 3.82129 2.73997 2.69997L3.93558 1.50436C4.86307 0.576868 6.36684 0.576865 7.29434 1.50436L8.86244 3.07247C9.56056 3.77058 9.70377 4.85013 9.21182 5.70612C8.91952 6.21471 9.00461 6.85613 9.4194 7.27092L12.0735 9.925C12.4883 10.3398 13.1297 10.4249 13.6383 10.1326C14.4943 9.64063 15.5738 9.78384 16.2719 10.482L17.84 12.0501C18.7675 12.9776 18.7675 14.4813 17.84 15.4088L16.6444 16.6044C15.5231 17.7257 13.7839 18.2359 12.2701 17.2685C11.0191 16.4691 9.19622 15.0659 6.73739 12.607C4.27855 10.1482 2.87528 8.32526 2.07589 7.07435ZM3.85956 3.81955C3.10753 4.57158 2.95086 5.50318 3.41006 6.22175C4.13433 7.35509 5.45928 9.08973 7.85697 11.4874C10.2547 13.8851 11.9893 15.2101 13.1227 15.9343C13.8412 16.3935 14.7728 16.2369 15.5249 15.4848L16.7205 14.2892C17.0296 13.9801 17.0296 13.4788 16.7205 13.1697L15.1524 11.6015C14.9601 11.4093 14.6629 11.3699 14.4272 11.5054C13.2983 12.1542 11.8746 11.9653 10.9539 11.0446L8.29981 8.3905C7.37911 7.4698 7.19024 6.04607 7.83905 4.91716C7.97449 4.68149 7.93507 4.38426 7.74286 4.19205L6.17475 2.62395C5.86559 2.31478 5.36433 2.31478 5.05516 2.62395L3.85956 3.81955Z" fill="white"/>
</g>
<defs>
<clipPath id="clip0_848_1345">
<rect width="19" height="19" fill="white"/>
</clipPath>
</defs>
</svg>
