<svg width="38" height="38" viewBox="0 0 38 38" fill="none" xmlns="http://www.w3.org/2000/svg">
<g clip-path="url(#clip0_506_1712)">
<path fill-rule="evenodd" clip-rule="evenodd" d="M9.08831 24.9375C8.29398 26.9635 7.60691 29.03 7.02998 31.1283C6.15914 34.8808 5.52581 35.72 8.78748 33.9467C12.065 32.1575 27.8666 23.3542 31.3975 21.4067C35.9891 18.8575 36.0525 19.0475 31.1441 16.34C27.4075 14.2817 11.78 5.7 8.78748 4.02166C5.79498 2.3275 6.15914 3.07166 7.04581 6.82416C7.31498 8.0275 8.01164 10.1175 9.10414 13.0625C9.48273 14.085 10.1189 14.9925 10.9511 15.6971C11.7832 16.4016 12.7832 16.8794 13.8541 17.0842L22.9741 18.8417C23.0161 18.8417 23.0564 18.8583 23.0861 18.888C23.1158 18.9177 23.1325 18.958 23.1325 19C23.1325 19.042 23.1158 19.0823 23.0861 19.112C23.0564 19.1416 23.0161 19.1583 22.9741 19.1583L13.8225 20.9C12.7515 21.1048 11.7515 21.5825 10.9194 22.2871C10.0872 22.9917 9.45106 23.8991 9.07248 24.9217L9.08831 24.9375Z" fill="#606060"/>
</g>
<defs>
<clipPath id="clip0_506_1712">
<rect width="38" height="38" fill="white"/>
</clipPath>
</defs>
</svg>
