<svg width="28" height="28" viewBox="0 0 28 28" fill="none" xmlns="http://www.w3.org/2000/svg">
<g clip-path="url(#clip0_595_2392)">
<path d="M20.93 20.93C18.9357 22.4502 16.5073 23.2923 14 23.3333C5.83335 23.3333 1.16669 14 1.16669 14C2.61789 11.2955 4.63068 8.93271 7.07002 7.07M11.55 4.94667C12.3531 4.7587 13.1753 4.66473 14 4.66667C22.1667 4.66667 26.8334 14 26.8334 14C26.1252 15.3249 25.2806 16.5722 24.3134 17.7217M16.4734 16.4733C16.1529 16.8172 15.7665 17.093 15.3372 17.2843C14.9079 17.4756 14.4444 17.5785 13.9745 17.5868C13.5045 17.5951 13.0377 17.5086 12.6019 17.3326C12.1661 17.1565 11.7702 16.8945 11.4378 16.5622C11.1055 16.2298 10.8435 15.8339 10.6674 15.3981C10.4914 14.9623 10.405 14.4955 10.4133 14.0256C10.4216 13.5556 10.5244 13.0922 10.7157 12.6628C10.907 12.2335 11.1828 11.8471 11.5267 11.5267" stroke="#606060" stroke-width="2" stroke-linecap="round" stroke-linejoin="round"/>
<path d="M1.16669 1.16666L26.8334 26.8333" stroke="#606060" stroke-width="2" stroke-linecap="round" stroke-linejoin="round"/>
</g>
<defs>
<clipPath id="clip0_595_2392">
<rect width="28" height="28" fill="white"/>
</clipPath>
</defs>
</svg>
