<svg width="473" height="477" viewBox="0 0 473 477" fill="none" xmlns="http://www.w3.org/2000/svg">
<g clip-path="url(#clip0_207_201)">
<path d="M239.517 93.3945C240.419 92.6054 241.479 92.0219 242.626 91.6838C243.772 91.3457 244.977 91.261 246.159 91.4355C247.318 91.6007 248.426 92.0257 249.401 92.6793C250.376 93.3329 251.193 94.1985 251.793 95.2125C252.487 96.6122 252.881 98.1434 252.951 99.7068C253.457 105.824 252.286 111.963 249.566 117.454C248.283 120.229 246.421 122.692 244.108 124.676C241.879 126.468 239.637 127.329 235.936 125.435C235.43 128.114 234.707 130.746 233.775 133.306C232.025 138.025 222.855 153.469 210.935 160.821C210.95 164.616 211.153 168.569 212.408 171.697C215.102 178.424 229.658 186.889 230.66 187.331C230.66 187.331 225.012 223.886 182.937 223.886C140.862 223.886 139.321 187.331 139.321 187.331C140.323 186.889 152.592 179.603 155.296 172.876C156.565 169.72 156.756 165.75 156.764 161.963C150.998 158.972 145.909 154.81 141.818 149.738C136.338 143.033 132.46 135.147 130.483 126.691C127.051 128.071 124.491 126.289 122.483 124.675C120.17 122.691 118.309 120.228 117.026 117.453C114.306 111.962 113.135 105.823 113.642 99.7068C113.711 98.1435 114.106 96.6122 114.799 95.2125C115.399 94.1985 116.216 93.3329 117.192 92.6793C118.167 92.0257 119.274 91.6007 120.434 91.4355C121.615 91.261 122.821 91.3457 123.967 91.6838C125.113 92.0219 126.173 92.6054 127.075 93.3945C127.075 93.3945 127.261 46.5737 185.733 46.5737C243.977 46.5737 239.517 93.3945 239.517 93.3945Z" fill="white"/>
<path d="M126.981 93.0507C128.78 94.9164 129.782 91.0938 130.462 89.5996C131.545 87.2213 133.13 83.7511 134.29 81.4121C134.929 80.1238 135.851 78.2369 136.415 76.922C137.014 75.5297 137.649 74.1575 138.319 72.8055C139.669 70.0839 141.166 67.4385 142.802 64.8812C143.52 63.5977 144.497 62.4805 145.67 61.6019C149.19 59.2736 154.019 61.153 158.311 60.8272C163.079 60.4654 167.03 57.3623 171.426 55.5953C177.539 53.1386 186.915 52.4923 192.839 55.3268C195.837 55.4828 198.628 55.3491 201.348 55.3268C204.39 55.2036 207.436 55.3406 210.455 55.7365C214.475 56.6018 218.266 58.3202 221.577 60.7772C224.888 63.2342 227.641 66.3737 229.656 69.9868C232.582 74.8299 234.907 80.0172 236.578 85.4321C237.117 87.3605 237.549 89.3176 237.873 91.2944C237.978 91.9587 238.051 92.6379 238.112 93.3054C238.154 93.7586 238.603 93.9199 239.662 93.1993L239.517 93.3988C240.414 92.6147 241.466 92.0335 242.605 91.6944C243.743 91.3554 244.94 91.2663 246.115 91.4334C250.264 77.6935 249.143 60.2733 245.11 49.8859C242.337 42.7405 238.088 34.4979 229.48 29.7308L221.577 22.6799C218.03 15.4157 210.617 9.20216 200.871 5.68734C190.661 2.00908 160.887 1.38507 150.875 10.1106L140.603 17.1933C129.141 22.4677 121.056 35.0964 117.611 48.0998C114.062 61.5054 114.032 80.9356 119.027 91.8038C120.389 91.3343 121.851 91.2343 123.264 91.5137C124.677 91.7931 125.993 92.4421 127.079 93.3956L126.981 93.0507Z" fill="#606060"/>
<path d="M191.521 192.505C190.358 191.25 189.403 190.286 188.666 189.555C185.165 189.555 182.561 189.567 179.271 189.574C178.359 190.481 177.118 191.738 175.569 193.454C171.934 197.475 167.675 201.527 164.67 205.151C157.887 197.175 152.275 188.259 148.008 178.675C153.362 200.079 161.971 222.84 168.883 243.478C174.475 260.175 178.833 271.26 185.421 287.732L200.243 243.478C207.774 220.993 217.319 195.987 222.473 172.96C216.929 186.021 212.01 194.707 203.288 205.151C200.28 201.527 196.025 197.475 192.389 193.454C192.088 193.12 191.799 192.804 191.521 192.505Z" fill="white"/>
<path d="M173.154 228.56C174.523 217.983 175.634 209.65 175.634 209.263C175.589 208.119 175.405 206.986 175.088 205.887C174.961 205.373 174.833 204.878 174.725 204.364C174.048 201.444 173.616 199.415 173.003 196.204C173.876 195.287 174.738 194.367 175.569 193.445C177.119 191.729 178.359 190.474 179.271 189.561C182.051 189.561 184.339 189.554 187.089 189.545H188.668C189.582 190.457 190.83 191.721 192.392 193.45C193.464 194.637 194.591 195.826 195.724 197.007C195.212 199.095 194.729 201.22 193.944 203.65C193.214 205.567 192.772 207.583 192.634 209.631C192.616 210.673 195.561 230.283 198.355 249.121L185.424 287.729C179.53 273 175.425 262.577 170.623 248.598C171.437 241.932 172.341 234.849 173.154 228.56Z" fill="#3F88C9"/>
<path d="M208.702 162.363C208.78 166.669 209.018 171.49 211.394 175.23C213.163 177.828 215.326 180.129 217.803 182.052C220.268 184.075 222.848 185.954 225.529 187.676C226.913 188.643 228.362 189.511 229.866 190.272C230.449 190.593 231.132 190.677 231.774 190.508C232.417 190.338 232.971 189.927 233.323 189.358C233.655 188.774 233.747 188.081 233.577 187.429C233.408 186.777 232.991 186.218 232.416 185.873C231.061 185.189 229.753 184.413 228.502 183.549C226.206 182.104 223.99 180.534 221.864 178.846C220.65 177.875 219.487 176.842 218.377 175.751C217.527 174.925 216.744 174.03 216.036 173.077C215.668 172.547 215.342 171.988 215.064 171.405C215.339 171.988 214.864 170.849 214.853 170.805C214.671 170.25 214.515 169.687 214.388 169.117C213.947 166.893 213.735 164.628 213.757 162.359C213.698 159.085 208.645 159.075 208.704 162.359L208.702 162.363Z" fill="#3D3D3D"/>
<path d="M140.151 190.276C141.609 189.532 143.005 188.671 144.326 187.702C146.837 186.023 149.223 184.162 151.465 182.132C153.726 180.213 155.6 177.873 156.986 175.242C158.849 171.278 159.006 166.707 159.027 162.401C159.042 159.122 153.989 159.118 153.975 162.401C154.004 164.445 153.902 166.489 153.668 168.52C153.472 170.122 153.039 171.685 152.384 173.158C151.085 175.385 149.398 177.356 147.404 178.977C145.49 180.66 143.463 182.206 141.337 183.604C140.151 184.459 138.902 185.221 137.601 185.883C137.026 186.227 136.609 186.786 136.44 187.438C136.27 188.09 136.362 188.783 136.695 189.368C137.044 189.939 137.598 190.353 138.242 190.523C138.885 190.693 139.569 190.607 140.151 190.281V190.276Z" fill="#3D3D3D"/>
<path d="M223.758 21.3916C218.553 10.9171 207.143 3.79515 195.901 1.82442C185.261 -0.0295963 174.376 0.0627898 163.769 2.09716C158.565 3.11701 153.197 4.78953 149.092 8.30648C148.623 8.78696 148.361 9.4337 148.361 10.1074C148.361 10.7811 148.623 11.4278 149.092 11.9083C149.572 12.3733 150.212 12.633 150.878 12.633C151.544 12.633 152.184 12.3733 152.664 11.9083C152.702 11.8765 153.28 11.4032 152.861 11.73C153.046 11.5857 153.239 11.4488 153.43 11.3151C153.83 11.037 154.242 10.7781 154.663 10.533C155.458 10.0807 156.277 9.67186 157.115 9.30829C159.209 8.4694 161.369 7.81016 163.572 7.33756C168.537 6.28133 173.595 5.73272 178.669 5.70007C187.994 5.52709 197.123 6.04816 205.526 10.499C211.315 13.5681 216.433 18.0009 219.396 23.9651C220.853 26.8962 225.213 24.3206 223.759 21.3947L223.758 21.3916Z" fill="#3D3D3D"/>
<path d="M233.565 122.259C233.432 124.572 233.005 126.857 232.293 129.06C232.045 129.896 231.767 130.725 231.493 131.55C231.397 131.837 231.304 132.123 231.204 132.408C231.166 132.514 230.909 133.136 231.081 132.726C231.261 132.302 230.961 132.985 230.924 133.067C230.826 133.279 230.725 133.491 230.623 133.704C230.358 134.252 230.078 134.794 229.789 135.331C229.14 136.538 228.447 137.721 227.724 138.886C223.941 145.145 219.178 150.747 213.62 155.473C210.525 158.134 206.925 160.131 203.04 161.343C199.919 162.241 201.25 167.158 204.383 166.254C212.382 163.95 219.044 158.147 224.399 151.927C228.83 146.984 232.531 141.422 235.388 135.414C237.284 131.275 238.38 126.809 238.617 122.255C238.722 118.977 233.675 118.98 233.565 122.255V122.259Z" fill="#3D3D3D"/>
<path d="M127.01 122.556C129.997 138.687 138.542 154.19 152.864 162.737C156.676 165.05 160.892 166.604 165.284 167.317C165.929 167.476 166.61 167.38 167.188 167.049C167.765 166.719 168.196 166.178 168.391 165.539C168.564 164.887 168.476 164.194 168.146 163.607C167.816 163.021 167.271 162.589 166.627 162.405C151.365 160.07 139.688 146.131 134.746 132.127C133.508 128.567 132.55 124.914 131.879 121.202C131.696 120.554 131.268 120.005 130.687 119.672C130.106 119.339 129.418 119.25 128.772 119.424C128.134 119.615 127.594 120.048 127.265 120.632C126.936 121.216 126.844 121.906 127.008 122.556H127.01Z" fill="#3D3D3D"/>
<path d="M128.865 91.5936C127.275 90.1853 125.315 89.2716 123.221 88.9633C121.127 88.655 118.989 88.9652 117.067 89.8564C112.912 91.7815 111.393 95.8354 111.08 100.173C110.471 108.572 112.989 117.895 118.511 124.331C121.475 127.785 125.681 130.517 130.348 129.425C133.514 128.682 132.174 123.77 129.005 124.513C125.865 125.25 122.759 121.847 121.157 119.525C117.733 114.357 115.952 108.259 116.052 102.044C116.078 100.17 116.098 97.995 117.079 96.3395C118.738 93.541 122.908 93.1558 125.289 95.1987C125.771 95.6605 126.411 95.9181 127.075 95.9181C127.74 95.9181 128.38 95.6605 128.862 95.1987C129.33 94.7182 129.592 94.0714 129.592 93.3977C129.592 92.724 129.33 92.0773 128.862 91.5968L128.865 91.5936Z" fill="#3D3D3D"/>
<path d="M139.327 14.9933C129.155 19.7541 122.057 29.4411 117.82 39.6438C113.526 49.9845 112.161 61.5987 112.649 72.7428C112.773 78.807 113.832 84.8147 115.789 90.5504C115.982 91.1918 116.412 91.734 116.99 92.0649C117.569 92.3959 118.251 92.4904 118.896 92.3291C119.539 92.1449 120.085 91.7132 120.415 91.1271C120.745 90.5409 120.833 89.8474 120.66 89.1963C117.081 79.5146 117.047 68.43 118.246 58.293C119.439 48.1964 122.798 38.2218 128.971 30.0874C132.351 25.5209 136.78 21.85 141.878 19.3901C142.452 19.0453 142.869 18.4866 143.039 17.8346C143.208 17.1826 143.117 16.4896 142.784 15.905C142.435 15.333 141.881 14.9188 141.237 14.7486C140.593 14.5783 139.909 14.6653 139.327 14.9912V14.9933Z" fill="#3D3D3D"/>
<path d="M192.01 54.0035C186.423 51.3735 180.127 50.6979 174.116 52.0837C171.236 52.8574 168.464 53.9907 165.862 55.4574C163.496 56.6842 161.02 58.0425 158.316 58.2803C155.484 58.5286 152.667 57.7762 149.834 57.8791C148.335 57.877 146.854 58.2131 145.501 58.8628C144.147 59.5125 142.955 60.4592 142.011 61.6338C138.088 66.6036 135.738 72.6325 132.999 78.2825C131.744 80.873 130.767 83.5887 129.473 86.159C128.882 87.3349 128.181 88.4322 127.665 89.6441C127.447 90.1557 127.231 90.665 126.966 91.1543C126.986 91.1182 126.699 91.5692 126.703 91.5788C126.362 90.8667 128.769 91.2466 128.772 91.2498C126.387 89.0276 122.805 92.622 125.2 94.8516C127.373 96.8754 130.027 96.105 131.392 93.6079C131.803 92.8554 132.06 92.0309 132.445 91.2668C133.112 89.937 133.892 88.6795 134.509 87.32C136.904 82.0382 139.073 76.6365 141.832 71.5277C142.554 70.1927 143.311 68.8778 144.103 67.5831C144.778 66.2261 145.678 64.9949 146.763 63.942C148.736 62.3766 151.766 62.9985 154.057 63.2161C156.969 63.607 159.93 63.348 162.732 62.4573C165.467 61.349 168.137 60.0862 170.731 58.675C173.646 57.2564 176.833 56.4969 180.069 56.4497C183.305 56.4024 186.513 57.0684 189.467 58.4012C190.05 58.7232 190.733 58.808 191.376 58.638C192.018 58.4681 192.572 58.0564 192.923 57.4875C193.256 56.9031 193.348 56.2102 193.178 55.5583C193.008 54.9065 192.592 54.348 192.017 54.0035H192.01Z" fill="#3D3D3D"/>
<path d="M169.623 41.726C176.218 40.2611 183.118 41.3719 188.933 44.8344C191.291 46.1573 193.389 47.903 195.124 49.9856C196.801 52.1729 198.231 54.5412 199.388 57.0471C200.862 59.9708 205.221 57.3952 203.751 54.4768C200.758 48.5338 197.015 43.5099 191.128 40.236C184.2 36.2667 176.053 35.0463 168.28 36.8135C165.111 37.5394 166.453 42.4519 169.623 41.726Z" fill="#3D3D3D"/>
<path d="M210.476 57.3167C216.527 58.8536 221.795 62.604 225.257 67.8388C229.37 73.5821 232.443 80.0131 234.335 86.835C234.651 88.0449 234.941 89.2632 235.177 90.4921C235.397 91.635 235.403 92.8618 235.675 93.9846C236.307 96.5815 239.084 96.5571 240.938 95.3971C243.693 93.6694 241.16 89.261 238.389 90.9983C237.577 91.4016 237.947 91.5303 239.499 91.3846L240.405 92.2983C240.606 92.9747 240.649 92.9747 240.536 92.2983C240.487 91.9042 240.436 91.5109 240.382 91.1182C240.289 90.4539 240.178 89.7931 240.051 89.1358C239.798 87.8252 239.487 86.5262 239.144 85.2368C238.551 83.0719 237.813 80.9501 236.934 78.8864C235.241 74.7603 233.189 70.7932 230.804 67.0312C226.268 59.9687 220.104 54.3866 211.819 52.4042C208.661 51.6475 207.309 56.5589 210.476 57.3167Z" fill="#3D3D3D"/>
<path d="M241.303 95.1955C241.893 94.7055 242.575 94.3411 243.308 94.1244C244.042 93.9078 244.811 93.8433 245.57 93.9348C246.328 94.0264 247.061 94.2721 247.723 94.6571C248.385 95.0422 248.962 95.5585 249.42 96.175C250.432 97.7138 250.481 99.7896 250.534 101.574C250.604 103.606 250.467 105.64 250.125 107.644C249.461 111.605 248.031 115.396 245.914 118.8C244.199 121.496 241.243 124.921 237.694 123.967C234.549 123.118 233.207 128.034 236.351 128.879C245.244 131.268 251.181 121.29 253.638 114.215C255.04 110.155 255.7 105.871 255.584 101.574C255.462 97.232 254.532 93.055 250.733 90.5197C248.74 89.2607 246.397 88.6851 244.054 88.8787C241.71 89.0722 239.491 90.0246 237.729 91.5936C237.26 92.0741 236.998 92.7209 236.998 93.3946C236.998 94.0683 237.26 94.715 237.729 95.1955C238.209 95.6608 238.849 95.9206 239.515 95.9206C240.181 95.9206 240.821 95.6608 241.301 95.1955H241.303Z" fill="#3D3D3D"/>
<path d="M228.205 31.9254C235.175 35.852 239.517 42.6058 242.426 49.9262C245.491 57.6393 246.407 66.1547 246.175 74.4111C246.06 79.6226 245.313 84.8004 243.95 89.8288C243.073 92.9902 247.95 94.3401 248.822 91.1829C251.35 81.6414 251.944 71.6838 250.569 61.9055C249.588 53.4691 246.688 45.3751 242.095 38.2547C239.202 33.8313 235.317 30.1565 230.754 27.5277C227.912 25.9262 225.363 30.324 228.205 31.9254Z" fill="#3D3D3D"/>
<path d="M72.7235 252.253C73.4003 266.838 74.7739 278.218 76.5317 292.892C78.3084 304.154 79.0578 311.799 84.7111 321.947C88.3393 328.462 94.8472 333.568 102.25 333.22C103.752 333.075 105.239 332.795 106.693 332.385L107.219 341.159C107.2 350.067 106.588 358.963 105.388 367.789C102.385 391.94 98.6417 422.485 96.6934 440.443C96.2376 444.639 96.3776 449.012 100.046 450.737C101.094 451.158 102.197 451.423 103.32 451.524C115.985 452.839 128.714 453.43 141.446 453.292C149.674 453.292 161.129 451.169 168.438 445.26C171.93 442.403 174.815 438.866 176.921 434.86C179.957 429.188 181.482 423.306 183.669 416.345C184.722 413.006 186.862 405.499 187.369 404.045L187.962 402.347L188.772 407.193C189.993 414.491 192.833 425.764 197.508 434.077C201.884 441.86 206.856 448.422 215.285 451.214C223.714 454.006 244.441 452.63 258.167 451.214C263.43 450.672 270.05 448.617 272.357 446.458C274.165 444.76 274.306 442.41 274.072 440.366C269.317 404.127 263.469 347.295 262.299 325.359C262.299 312.679 263.82 294.771 264.794 281.174C266.104 283.283 266.899 284.56 266.899 284.56C278.674 303.485 293.802 320.482 301.51 326.528C310.983 333.956 315.025 334.534 320.044 333.875C324.646 333.179 328.998 331.317 332.691 328.462C348.379 316.193 374.444 279.829 379.042 271.116C374.246 266.163 349.922 247.514 346.685 245.096C340.663 251.345 332.74 262.394 324.208 271.398C324.105 271.508 323.98 271.594 323.842 271.651C323.703 271.708 323.555 271.734 323.405 271.729C323.256 271.723 323.109 271.686 322.975 271.619C322.842 271.552 322.723 271.457 322.629 271.34C315.744 262.555 309.53 253.256 304.04 243.524C296.153 229.766 290.156 221.722 281.484 208.656C277.428 202.542 272.993 199.602 267.275 195.815C256.855 188.917 236.119 181.142 225.183 176.925C224.098 176.118 223.042 175.397 222.044 174.782C216.81 197.301 207.569 221.583 200.238 243.472L185.415 287.726C178.828 271.254 174.469 260.168 168.878 243.472C161.51 221.488 152.227 197.096 146.999 174.499C143.615 176.654 140.454 179.148 137.564 181.941L134.406 183.302C119.219 189.866 88.4319 200.079 79.0599 213.809C74.0677 221.125 72.0078 233.619 72.7235 252.253Z" fill="#007AFF"/>
<path d="M203.288 205.151C210.179 197.044 215.864 187.969 220.163 178.211C218.07 174.141 216.663 171.503 213.102 168.202C209.03 173.721 199.735 180.614 188.59 185.133C187.794 185.396 187.058 185.816 186.424 186.368C186.158 186.869 186.677 187.309 186.921 187.703C187.304 188.321 189.186 189.909 192.389 193.454C196.023 197.475 200.28 201.527 203.288 205.151Z" fill="white"/>
<path d="M164.67 205.151C157.778 197.044 152.094 187.969 147.795 178.211C149.888 174.141 151.295 171.503 154.856 168.202C158.928 173.721 168.223 180.614 179.368 185.133C180.163 185.396 180.9 185.816 181.534 186.368C181.8 186.869 181.281 187.309 181.037 187.703C180.654 188.321 178.772 189.909 175.564 193.454C171.932 197.475 167.678 201.527 164.67 205.151Z" fill="white"/>
<path d="M176.408 211.659C181.648 211.659 186.889 211.542 192.131 211.54C192.801 211.54 193.443 211.272 193.917 210.794C194.391 210.317 194.657 209.669 194.657 208.993C194.657 208.318 194.391 207.67 193.917 207.192C193.443 206.715 192.801 206.446 192.131 206.446C186.889 206.446 181.648 206.563 176.408 206.565C175.738 206.565 175.095 206.834 174.621 207.311C174.148 207.789 173.882 208.437 173.882 209.112C173.882 209.788 174.148 210.435 174.621 210.913C175.095 211.391 175.738 211.659 176.408 211.659Z" fill="#3D3D3D"/>
<path d="M170.814 198.165C171.267 200.468 171.758 202.761 172.288 205.045C172.769 206.482 173.039 207.981 173.089 209.496C172.984 211.073 172.698 212.657 172.494 214.222C171.56 221.438 170.611 228.646 169.69 235.862C169.059 240.826 168.439 245.791 167.832 250.758C167.835 251.433 168.102 252.079 168.575 252.555C169.048 253.032 169.689 253.302 170.358 253.305C171.023 253.289 171.656 253.016 172.126 252.542C172.597 252.068 172.868 251.429 172.884 250.758C173.929 242.128 175.037 233.507 176.157 224.886C176.816 219.821 177.71 214.726 178.126 209.633C178.154 208.051 177.929 206.474 177.46 204.964C176.797 202.265 176.223 199.543 175.686 196.816C175.598 196.493 175.447 196.191 175.243 195.927C175.039 195.663 174.786 195.443 174.498 195.277C174.209 195.112 173.891 195.006 173.562 194.965C173.233 194.924 172.898 194.948 172.579 195.037C172.259 195.126 171.959 195.277 171.698 195.483C171.436 195.689 171.217 195.944 171.053 196.235C170.889 196.526 170.784 196.846 170.743 197.178C170.702 197.51 170.726 197.847 170.814 198.17V198.165Z" fill="#3D3D3D"/>
<path d="M188.365 187.008C185.258 187.013 182.15 187.019 179.041 187.028C178.371 187.028 177.729 187.296 177.255 187.774C176.781 188.251 176.515 188.899 176.515 189.575C176.515 190.25 176.781 190.898 177.255 191.376C177.729 191.853 178.371 192.122 179.041 192.122C182.15 192.115 185.258 192.109 188.365 192.102C189.035 192.102 189.677 191.833 190.151 191.356C190.625 190.878 190.891 190.23 190.891 189.555C190.891 188.879 190.625 188.231 190.151 187.754C189.677 187.276 189.035 187.008 188.365 187.008Z" fill="#3D3D3D"/>
<path d="M200.817 248.643C199.594 240.402 198.372 232.16 197.15 223.916C196.7 220.854 196.255 217.79 195.815 214.724C195.66 213.632 195.508 212.54 195.359 211.446C195.332 211.249 195.418 211.913 195.352 211.389C195.332 211.23 195.311 211.07 195.291 210.915C195.256 210.637 195.215 210.359 195.192 210.08C195.148 208.898 195.312 207.717 195.676 206.593C196.291 204.351 197.05 202.161 197.615 199.907C198.408 196.723 193.537 195.371 192.742 198.553C191.843 202.153 189.964 205.981 190.111 209.756C190.172 211.33 190.501 212.922 190.719 214.48C191.667 221.291 192.695 228.091 193.704 234.894C194.452 239.928 195.199 244.963 195.947 249.996C196.129 250.645 196.557 251.196 197.139 251.529C197.72 251.862 198.409 251.95 199.055 251.775C199.691 251.581 200.23 251.148 200.558 250.565C200.887 249.981 200.98 249.293 200.819 248.642L200.817 248.643Z" fill="#3D3D3D"/>
<path d="M205.074 206.951C210.264 200.814 214.808 194.149 218.634 187.066C219.558 185.324 220.441 183.562 221.283 181.779C221.803 180.856 222.243 179.889 222.599 178.89C222.943 177.625 222.123 176.485 221.562 175.419C219.858 172.054 217.601 169.004 214.888 166.398C214.611 166.132 214.277 165.931 213.913 165.811C213.549 165.69 213.162 165.653 212.782 165.703C212.402 165.752 212.037 165.887 211.715 166.096C211.393 166.306 211.121 166.585 210.92 166.914C206.672 172.594 199.404 177.129 192.921 180.387C190.816 181.448 188.606 182.26 186.501 183.29C184.297 184.365 183.008 186.455 184.567 188.744C186.211 191.158 188.643 193.103 190.601 195.251C194.193 199.187 198.075 202.859 201.501 206.948C201.977 207.421 202.619 207.686 203.287 207.686C203.955 207.686 204.597 207.421 205.073 206.948C205.534 206.464 205.791 205.819 205.791 205.147C205.791 204.476 205.534 203.831 205.073 203.346C201.854 199.502 198.211 196.046 194.822 192.359C193.364 190.774 191.906 189.198 190.383 187.676C189.972 187.267 189.568 186.849 189.156 186.44C188.993 186.276 188.63 185.738 189.147 186.484C189.085 186.394 188.747 185.815 188.785 185.981V187.336L188.86 187.043L188.209 188.166C187.953 188.468 188.476 187.983 188.667 187.881C188.857 187.779 189.061 187.677 189.261 187.586C190.112 187.199 190.992 186.866 191.849 186.491C193.355 185.83 194.839 185.122 196.301 184.368C198.989 182.981 201.591 181.428 204.09 179.719C208.35 176.949 212.132 173.493 215.284 169.49L211.317 170.005C214.076 172.749 216.333 175.963 217.983 179.498V176.928C213.686 186.439 208.143 195.327 201.503 203.353C201.045 203.839 200.79 204.484 200.79 205.154C200.79 205.824 201.045 206.469 201.503 206.955C201.98 207.426 202.621 207.69 203.289 207.69C203.957 207.689 204.598 207.424 205.074 206.951Z" fill="#3D3D3D"/>
<path d="M166.459 203.35C159.819 195.324 154.276 186.436 149.979 176.925V179.495C151.629 175.96 153.886 172.746 156.645 170.002L152.678 169.487C155.83 173.49 159.612 176.946 163.873 179.716C166.372 181.425 168.974 182.977 171.662 184.365C173.052 185.085 174.463 185.762 175.896 186.396C176.752 186.776 177.622 187.121 178.48 187.497C178.758 187.619 179.027 187.739 179.296 187.883C179.468 187.974 180.056 188.526 179.754 188.169L179.104 187.045L179.178 187.338V185.983C179.216 185.817 178.878 186.396 178.816 186.487C179.337 185.744 178.97 186.274 178.807 186.442C178.395 186.852 177.991 187.269 177.58 187.678C176.058 189.2 174.598 190.776 173.142 192.362C169.751 196.048 166.109 199.504 162.89 203.349C162.432 203.835 162.177 204.479 162.177 205.149C162.177 205.82 162.432 206.464 162.89 206.95C163.366 207.423 164.008 207.688 164.676 207.688C165.344 207.688 165.986 207.423 166.462 206.95C169.474 203.354 172.86 200.099 176.056 196.673C177.538 195.082 178.985 193.466 180.514 191.922C181.251 191.174 182.053 190.463 182.724 189.65C184.168 187.905 184.816 185.583 182.693 184.026C180.952 182.747 178.668 182.13 176.721 181.211C172.7 179.323 168.856 177.072 165.237 174.485C162.166 172.364 159.407 169.816 157.043 166.917C156.841 166.588 156.57 166.309 156.248 166.099C155.925 165.89 155.561 165.756 155.181 165.706C154.8 165.657 154.414 165.693 154.05 165.814C153.685 165.934 153.352 166.135 153.075 166.402C150.362 169.008 148.106 172.057 146.401 175.422C145.889 176.396 145.166 177.409 145.319 178.555C145.592 179.62 146.018 180.638 146.583 181.579C147.458 183.429 148.374 185.259 149.329 187.069C153.152 194.151 157.694 200.814 162.88 206.951C163.357 207.424 163.998 207.689 164.667 207.689C165.335 207.689 165.976 207.424 166.453 206.951C166.915 206.468 167.173 205.823 167.174 205.152C167.175 204.481 166.919 203.835 166.459 203.35Z" fill="#3D3D3D"/>
<path d="M201.873 304.513C202.154 304.769 202.381 305.079 202.655 305.336C202.399 304.995 202.347 304.929 202.498 305.14C202.547 305.21 202.594 305.281 202.64 305.352C202.719 305.476 202.791 305.603 202.86 305.733C202.965 305.936 203.077 306.379 202.834 305.62C202.882 305.77 202.94 305.914 202.991 306.064C203.079 306.354 203.143 306.651 203.185 306.951L203.094 306.274C203.161 306.808 203.161 307.349 203.094 307.883L203.185 307.206C203.143 307.506 203.082 307.804 203.003 308.097C202.964 308.237 202.921 308.375 202.873 308.512C202.852 308.572 202.83 308.63 202.809 308.689C202.673 309.074 202.914 308.4 202.944 308.378C202.81 308.469 202.686 308.909 202.596 309.06C202.536 309.158 202.472 309.253 202.409 309.349C202.199 309.679 202.91 308.745 202.543 309.173C202.447 309.286 202.345 309.394 202.239 309.497C202.151 309.581 201.687 309.962 202.074 309.66C202.462 309.359 201.982 309.712 201.873 309.78C201.731 309.868 201.584 309.951 201.434 310.027C201.406 310.041 201.212 310.167 201.182 310.149C201.182 310.149 201.807 309.906 201.473 310.022C201.312 310.079 201.158 310.138 200.991 310.188C200.646 310.29 200.295 310.366 199.939 310.416L200.61 310.325C199.981 310.407 199.345 310.407 198.716 310.325L199.387 310.416C199.136 310.38 198.887 310.33 198.642 310.265C198.504 310.228 198.368 310.187 198.235 310.139C198.032 310.068 197.725 309.867 198.445 310.245C198.235 310.139 198.017 310.033 197.814 309.906C197.722 309.847 197.338 309.557 197.743 309.871C198.148 310.184 197.743 309.847 197.666 309.778C197.561 309.681 197.466 309.58 197.372 309.476C197.221 309.311 196.928 308.804 197.338 309.467C197.179 309.21 197.004 308.971 196.866 308.699C196.761 308.487 196.716 308.168 196.916 308.854C196.871 308.699 196.802 308.549 196.756 308.393C196.679 308.125 196.62 307.851 196.582 307.574L196.673 308.251C196.617 307.783 196.617 307.309 196.673 306.841L196.583 307.518C196.623 307.206 196.686 306.898 196.773 306.596C196.816 306.444 196.869 306.296 196.921 306.148C197.058 305.741 196.618 306.791 196.899 306.21C197.039 305.924 197.199 305.648 197.378 305.385C197.74 304.854 197.062 305.741 197.344 305.42C197.449 305.299 197.555 305.175 197.66 305.058C197.765 304.941 197.87 304.856 197.976 304.756C198.277 304.474 197.396 305.166 197.907 304.813C198.164 304.642 198.43 304.488 198.705 304.351C199.081 304.154 198.043 304.6 198.645 304.378C198.795 304.322 198.946 304.271 199.099 304.228C199.41 304.139 199.726 304.071 200.046 304.025L199.375 304.116C199.933 304.042 200.499 304.039 201.059 304.107L200.383 304.015C200.601 304.045 200.818 304.087 201.031 304.141C201.234 304.225 201.443 304.293 201.657 304.346C202.072 304.468 202.518 304.422 202.9 304.219C203.283 304.016 203.573 303.671 203.708 303.257C203.844 302.843 203.814 302.392 203.627 301.999C203.439 301.606 203.107 301.302 202.702 301.151C202.296 301 201.848 301.013 201.452 301.188C201.056 301.364 200.743 301.687 200.579 302.09C200.414 302.494 200.412 302.946 200.571 303.351C200.731 303.756 201.04 304.083 201.434 304.263C201.524 304.309 201.611 304.356 201.698 304.407C201.803 304.469 201.901 304.537 202.002 304.605C202.359 304.846 201.523 304.207 201.873 304.51C202.358 304.973 202.995 305.238 203.663 305.253C204.163 305.254 204.653 305.106 205.069 304.826C205.486 304.546 205.811 304.148 206.002 303.682C206.194 303.215 206.244 302.702 206.146 302.207C206.048 301.713 205.807 301.258 205.452 300.902C204.019 299.642 202.18 298.95 200.279 298.954C198.572 298.943 196.898 299.425 195.454 300.343C193.976 301.325 192.837 302.745 192.192 304.407C191.547 306.069 191.429 307.892 191.854 309.624C192.38 311.477 193.527 313.09 195.098 314.188C196.439 315.058 198.006 315.509 199.601 315.483C201.129 315.54 202.644 315.173 203.98 314.423C205.316 313.673 206.422 312.568 207.179 311.228C207.939 309.773 208.285 308.134 208.179 306.494C208.009 304.349 207.034 302.351 205.453 300.906C205.219 300.667 204.941 300.476 204.633 300.345C204.326 300.215 203.996 300.147 203.663 300.146C203.329 300.144 202.999 300.209 202.69 300.337C202.382 300.465 202.102 300.654 201.866 300.892C201.63 301.129 201.444 301.412 201.317 301.723C201.19 302.033 201.125 302.367 201.126 302.703C201.128 303.039 201.195 303.372 201.324 303.682C201.454 303.991 201.643 304.272 201.881 304.508L201.873 304.513Z" fill="#3D3D3D"/>
<path d="M104.692 341.158C104.678 357.263 102.175 373.214 100.22 389.162C98.2892 404.903 96.3672 420.647 94.6094 436.408C94.2295 439.817 93.6474 443.27 94.281 446.686C94.6074 448.528 95.5081 450.217 96.8521 451.507C98.1961 452.798 99.9134 453.623 101.754 453.862C105.402 454.476 109.181 454.632 112.868 454.923C116.217 455.183 119.57 455.385 122.927 455.531C126.695 455.69 130.465 455.772 134.235 455.812C138.163 455.855 142.118 455.984 146.036 455.642C153.585 454.983 161.465 453.103 167.853 448.831C174.998 444.056 179.47 436.627 182.378 428.668C184.904 421.752 186.83 414.594 188.933 407.539C189.213 406.6 189.483 405.657 189.799 404.732C190.862 401.625 185.983 400.291 184.927 403.377C183.018 408.964 181.516 414.724 179.782 420.37C177.451 427.963 174.814 435.568 169.08 441.283C158.289 452.037 141.555 450.976 127.602 450.6C121.021 450.423 114.455 450.002 107.898 449.415C106.161 449.328 104.429 449.151 102.71 448.884C102.077 448.846 101.463 448.65 100.924 448.313C100.385 447.977 99.9381 447.51 99.6228 446.955C98.3681 444.354 99.1691 440.831 99.4744 438.071C101.126 423.108 102.948 408.166 104.771 393.223C105.748 385.229 106.733 377.238 107.727 369.251C108.682 361.563 109.482 353.863 109.679 346.116C109.721 344.466 109.738 342.816 109.74 341.166C109.74 337.888 104.688 337.883 104.688 341.166L104.692 341.158Z" fill="#3D3D3D"/>
<path d="M262.839 272.296C262.142 285.071 260.917 297.813 260.235 310.59C259.801 316.211 259.686 321.853 259.889 327.487C260.145 331.719 260.468 335.947 260.812 340.173C262.804 364.613 265.4 389.012 268.226 413.368C268.946 419.58 269.694 425.789 270.468 431.995C270.818 434.785 271.232 437.571 271.541 440.365C271.782 441.545 271.659 442.772 271.187 443.88C270.955 444.283 270.639 444.631 270.261 444.901C269.643 445.317 268.991 445.68 268.313 445.986C262.743 448.579 256.434 448.891 250.419 449.382C244.032 449.905 237.622 450.281 231.213 450.283C226.119 450.283 220.928 450.323 216.167 448.825C210.599 447.073 206.273 442.945 203.01 438.198C195.424 427.15 192.339 414.149 190.33 401.061C187.969 385.673 186.446 370.187 184.57 354.741C183.526 346.958 182.905 339.124 182.711 331.273C182.633 323.874 182.979 316.477 183.747 309.119C184.08 305.865 184.487 302.62 184.966 299.385C185.123 298.735 185.027 298.048 184.7 297.466C184.372 296.884 183.836 296.45 183.202 296.252C182.556 296.077 181.868 296.166 181.286 296.499C180.705 296.832 180.277 297.383 180.095 298.031C177.688 313.327 177.091 328.856 178.316 344.294C178.991 351.847 180.076 359.374 180.936 366.908C181.863 375.033 182.795 383.158 183.872 391.264C185.787 405.654 187.701 420.439 194.345 433.537C197.202 439.168 200.878 444.84 205.818 448.828C208.432 450.967 211.41 452.607 214.607 453.669C216.906 454.35 219.27 454.786 221.659 454.967C227.751 455.482 233.872 455.546 239.974 455.156C246.431 454.857 252.953 454.461 259.366 453.612C262.757 453.195 266.082 452.344 269.26 451.08C272.321 449.83 275.215 448.159 276.266 444.773C277.185 441.811 276.355 438.545 275.973 435.555C275.587 432.531 275.209 429.505 274.841 426.478C271.711 400.867 268.986 375.207 266.664 349.499C265.822 340.054 264.665 330.482 264.875 320.99C265.18 307.441 266.413 293.929 267.372 280.416C267.563 277.711 267.745 275.003 267.898 272.295C268.077 269.019 263.024 269.03 262.846 272.295L262.839 272.296Z" fill="#3D3D3D"/>
<path d="M219.686 173.828C216.126 189.142 211.134 204.073 206.02 218.919C200.805 234.059 195.655 249.222 190.571 264.407L181.483 291.539C180.441 294.652 185.319 295.987 186.355 292.893C191.74 276.815 197.125 260.737 202.51 244.658C207.457 229.897 212.803 215.274 217.504 200.429C220.143 192.098 222.578 183.699 224.556 175.182C225.293 171.998 220.427 170.633 219.685 173.828H219.686Z" fill="#3D3D3D"/>
<path d="M144.566 175.18C148.162 190.655 153.221 205.744 158.391 220.74C163.362 235.16 168.11 249.676 173.443 263.965C176.334 271.713 179.388 279.403 182.457 287.085C182.653 287.724 183.083 288.265 183.661 288.595C184.239 288.926 184.92 289.022 185.565 288.863C186.208 288.68 186.754 288.248 187.084 287.662C187.414 287.075 187.502 286.382 187.329 285.73C181.786 271.861 176.413 257.941 171.646 243.778C166.629 228.865 161.244 214.076 156.489 199.073C153.851 190.742 151.416 182.342 149.437 173.826C148.7 170.636 143.823 171.986 144.566 175.18Z" fill="#3D3D3D"/>
<path d="M145.729 172.306C139.72 176.1 134.377 180.872 129.917 186.429C128.833 187.746 127.818 189.119 126.877 190.543C125.982 191.922 124.744 193.652 124.827 195.36C124.949 197.86 127.74 198.823 129.583 199.849L135.906 203.366L135.396 199.365C132.82 201.716 130.258 204.083 127.79 206.547C126.533 207.611 125.423 208.841 124.489 210.203C124.065 210.989 123.844 211.871 123.849 212.766C123.854 213.661 124.083 214.54 124.516 215.321C127.271 221.066 130.57 226.61 133.695 232.156C140.247 243.784 147.063 255.259 153.981 266.672C157.856 273.068 161.759 279.448 165.69 285.811C167.401 288.59 171.773 286.035 170.051 283.24C156.808 261.741 143.607 240.17 131.619 217.921C130.834 216.463 130.055 215.001 129.281 213.535C129.115 213.304 128.983 213.049 128.888 212.78C128.828 212.425 128.776 212.992 128.935 212.644C129.251 211.949 130.304 211.213 130.83 210.683C133.461 208.03 136.204 205.489 138.963 202.97C139.233 202.693 139.437 202.358 139.56 201.991C139.683 201.623 139.722 201.232 139.674 200.847C139.626 200.462 139.491 200.093 139.281 199.768C139.071 199.443 138.791 199.17 138.461 198.97L133.718 196.332L131.459 195.076L130.33 194.448C130.141 194.342 129.326 193.677 129.539 194.077L129.884 195.363C129.901 195.767 129.725 195.712 129.971 195.271C130.076 195.085 130.173 194.894 130.277 194.707C130.525 194.268 130.784 193.835 131.055 193.41C131.592 192.561 132.165 191.74 132.772 190.944C137.154 185.391 142.391 180.583 148.283 176.704C151.054 174.998 148.518 170.59 145.733 172.306H145.729Z" fill="#3D3D3D"/>
<path d="M133.142 181.109C132.3 181.472 130.827 182.082 129.643 182.567C128.204 183.155 126.764 183.738 125.321 184.314C122.118 185.599 118.914 186.882 115.726 188.205C108.848 190.968 102.12 194.095 95.5694 197.572C89.8719 200.68 84.1144 204.267 79.6515 209.065C75.8352 213.382 73.2188 218.64 72.0679 224.305C69.9438 233.407 69.8575 242.961 70.1975 252.257C70.3185 255.524 75.3718 255.54 75.2498 252.257C74.9519 244.228 74.9445 236.025 76.4276 228.102C76.9398 225.16 77.751 222.28 78.8484 219.506C79.7471 217.431 80.9067 215.481 82.2987 213.704C86.2616 209.001 91.5507 205.645 96.8598 202.667C103.027 199.284 109.382 196.26 115.893 193.611C122.471 190.858 129.14 188.332 135.689 185.513C136.264 185.17 136.682 184.611 136.852 183.959C137.022 183.306 136.929 182.612 136.595 182.028C136.245 181.458 135.691 181.046 135.048 180.875C134.405 180.705 133.722 180.791 133.139 181.115L133.142 181.109Z" fill="#3D3D3D"/>
<path d="M220.656 176.915C221.372 177.353 222.074 177.813 222.761 178.295C223.141 178.561 223.517 178.832 223.89 179.109C224.081 179.252 224.273 179.395 224.462 179.541C224.548 179.605 224.634 179.671 224.719 179.737C225.083 180.016 224.411 179.492 224.658 179.689C226.245 180.954 227.782 182.278 229.267 183.66C229.742 184.132 230.383 184.395 231.049 184.392C231.715 184.389 232.354 184.121 232.825 183.646C233.296 183.171 233.562 182.527 233.565 181.855C233.568 181.183 233.307 180.538 232.839 180.059C229.888 177.224 226.661 174.697 223.208 172.514C222.629 172.173 221.94 172.078 221.292 172.249C220.644 172.42 220.09 172.844 219.751 173.427C219.413 174.011 219.319 174.705 219.489 175.359C219.658 176.012 220.079 176.571 220.657 176.912L220.656 176.915Z" fill="#3D3D3D"/>
<path d="M118.905 256.403C120.372 261.062 122.653 265.42 125.641 269.27C126.115 269.747 126.757 270.015 127.427 270.015C128.097 270.015 128.74 269.747 129.213 269.27C129.669 268.782 129.923 268.138 129.923 267.468C129.923 266.798 129.669 266.154 129.213 265.667C129.003 265.403 129.242 265.643 129.289 265.766C129.23 265.663 129.159 265.567 129.079 265.479C128.916 265.257 128.763 265.032 128.602 264.806C128.313 264.381 128.037 263.957 127.767 263.533C127.169 262.577 126.609 261.588 126.093 260.584C125.846 260.105 125.608 259.623 125.379 259.137C125.103 258.645 124.872 258.129 124.687 257.595C124.734 257.773 124.83 257.945 124.718 257.663C124.669 257.544 124.621 257.424 124.575 257.305C124.481 257.07 124.39 256.834 124.303 256.596C124.114 256.087 123.938 255.572 123.777 255.052C123.599 254.401 123.171 253.848 122.589 253.514C122.006 253.18 121.316 253.094 120.67 253.273C120.024 253.453 119.475 253.884 119.144 254.472C118.813 255.059 118.727 255.755 118.906 256.406L118.905 256.403Z" fill="#3D3D3D"/>
<path d="M366.288 254.908L359.446 254.933C365.93 260.006 373.178 265.794 377.053 269.247C377.201 269.01 377.286 268.876 377.286 268.876C379.165 265.949 381.433 262.568 382.91 260.083C383.076 259.806 383.141 259.478 383.093 259.157C383.045 258.837 382.887 258.543 382.647 258.327C380.594 256.439 378.414 254.697 376.121 253.114C376.121 253.906 376.121 254.494 376.121 254.859C374.728 254.872 371.263 254.889 366.288 254.908Z" fill="white"/>
<path d="M367.971 224.086C366.271 223.585 364.625 222.916 363.055 222.089C361.755 221.464 360.634 220.514 359.799 219.33C359.371 218.67 359.097 217.921 358.997 217.139C358.897 216.357 358.974 215.563 359.221 214.815C360.014 212.613 361.952 211.419 364.675 211.566L363.612 211.276C362.609 210.997 361.655 210.56 360.785 209.983C360.174 209.459 359.718 208.776 359.465 208.009C359.211 207.241 359.172 206.418 359.35 205.63C359.528 204.841 359.916 204.116 360.474 203.535C361.031 202.953 361.736 202.536 362.511 202.33C364.396 201.952 366.331 201.904 368.232 202.188C376.525 203.067 380.349 204.087 389.336 205.796C384.908 203.446 378.936 201.804 374.615 199.572C373.705 199.124 372.943 198.421 372.42 197.547C371.897 196.673 371.636 195.665 371.667 194.645C371.772 193.593 372.234 192.61 372.976 191.862C373.718 191.115 374.693 190.649 375.737 190.545C382.052 190.037 393.361 193.635 396.538 196.461L397.089 196.95L397.32 197.305C399.252 200.641 400.238 204.448 400.173 208.31C400.155 216.943 399.444 225.56 398.047 234.077C397.74 236.758 396.883 239.346 395.531 241.675C394.152 243.517 392.48 245.116 390.584 246.408C387.605 248.69 384.627 250.968 381.648 253.243C381.058 253.698 380.217 254.673 379.345 255.501C378.347 254.702 377.246 253.872 376.13 253.132C376.13 250.364 376.139 245.077 376.143 237.963C375.82 237.864 375.501 237.751 375.183 237.634C371.862 236.387 369.078 235.709 366.959 233.138C366.03 232.009 365.102 229.521 365.574 228.096C366.246 226.07 368.627 224.712 371.586 225.085C370.373 224.771 369.163 224.455 367.971 224.086Z" fill="white"/>
<path d="M379.468 270.161C380.573 268.441 381.699 266.734 382.808 265.016C383.334 264.205 383.85 263.393 384.358 262.575C385.053 261.676 385.493 260.604 385.632 259.473C385.699 257.295 383.905 256.018 382.427 254.766C380.798 253.368 379.093 252.064 377.319 250.86C376.739 250.523 376.052 250.43 375.405 250.601C374.758 250.773 374.204 251.194 373.863 251.774C373.54 252.361 373.454 253.05 373.623 253.699C373.792 254.348 374.202 254.907 374.769 255.258C376.125 256.162 377.425 257.147 378.664 258.207C379.207 258.664 379.743 259.128 380.273 259.601C380.365 259.682 380.753 260.144 380.861 260.131C380.66 260.159 380.637 259.388 380.637 259.371C380.637 259.088 380.837 258.649 380.614 258.995C378.773 261.86 376.946 264.731 375.106 267.591C374.773 268.175 374.682 268.868 374.851 269.52C375.021 270.172 375.438 270.731 376.012 271.076C376.594 271.402 377.278 271.489 377.922 271.319C378.566 271.148 379.12 270.733 379.468 270.161Z" fill="#3D3D3D"/>
<path d="M221.508 178.218C230.506 181.76 239.58 185.095 248.44 188.983C253.202 191.015 257.857 193.293 262.386 195.807C267.033 198.298 271.343 201.38 275.211 204.978C277.374 207.248 279.298 209.738 280.955 212.406C282.805 215.165 284.666 217.919 286.539 220.666C289.941 225.68 293.322 230.71 296.523 235.859C300.119 241.64 303.395 247.614 306.995 253.395C310.734 259.445 314.777 265.298 319.108 270.931C320.266 272.417 321.318 274.221 323.411 274.271C325.411 274.317 326.69 272.478 327.908 271.138C330.547 268.237 333.075 265.236 335.568 262.206C339.804 257.058 343.862 251.709 348.476 246.892L345.416 247.29C354.393 254.007 363.031 260.747 371.692 267.974C373.63 269.523 375.489 271.172 377.261 272.913L376.865 269.826C373.369 276.405 368.744 282.505 364.363 288.504C358.003 297.298 351.21 305.766 344.01 313.876C340.856 317.456 337.509 320.859 333.986 324.071C329.934 327.697 325.23 330.662 319.609 331.381C318.833 331.48 318.051 331.53 317.268 331.53C316.839 331.53 316.413 331.503 315.985 331.473C315.898 331.467 315.184 331.367 315.784 331.456C315.483 331.409 315.184 331.353 314.887 331.286C312.868 330.807 310.946 329.981 309.203 328.845C304.786 326.112 300.72 322.838 297.099 319.099C286.448 308.263 277.048 296.246 269.079 283.277C267.352 280.509 262.974 283.065 264.716 285.848C272.364 298.192 281.226 309.728 291.169 320.279C294.767 324.143 298.713 327.66 302.958 330.785C307.063 333.751 311.663 336.466 316.844 336.622C328.119 336.96 336.781 328.968 344.054 321.311C351.787 312.998 359.036 304.24 365.763 295.081C369.12 290.604 372.394 286.061 375.545 281.43C377.6 278.529 379.497 275.518 381.229 272.41C381.499 271.92 381.607 271.357 381.536 270.801C381.465 270.246 381.219 269.728 380.834 269.324C376.952 265.604 372.847 262.127 368.543 258.912C363.346 254.756 358.106 250.655 352.822 246.609C351.209 245.368 349.596 244.125 347.966 242.905C347.484 242.622 346.922 242.508 346.368 242.58C345.815 242.652 345.301 242.906 344.905 243.303C341.187 247.183 337.853 251.432 334.465 255.599C332.509 258 330.546 260.398 328.54 262.758C327.519 263.961 326.485 265.149 325.439 266.324C324.454 267.572 323.366 268.734 322.187 269.797L323.301 269.142C324.633 268.612 324.604 270.118 324.133 269.186C323.919 268.859 323.675 268.552 323.406 268.27C323.004 267.76 322.606 267.247 322.212 266.73C321.342 265.586 320.488 264.429 319.649 263.26C317.999 260.968 316.397 258.641 314.845 256.279C311.864 251.757 309.027 247.142 306.335 242.434C301.178 233.465 295.494 224.866 289.684 216.314C286.686 211.897 283.946 207.124 280.421 203.112C277.218 199.72 273.588 196.767 269.622 194.328C262.513 189.6 254.676 186.124 246.847 182.808C238.922 179.454 230.86 176.464 222.855 173.313C222.209 173.139 221.521 173.228 220.939 173.561C220.358 173.894 219.93 174.444 219.748 175.093C219.585 175.744 219.678 176.433 220.006 177.016C220.335 177.6 220.874 178.033 221.512 178.226L221.508 178.218Z" fill="#3D3D3D"/>
<path d="M376.054 59.247C360.646 59.247 239.299 59.6461 231.408 59.6429C231.418 78.3961 231.914 244.135 231.92 255.259C244.529 255.259 365.898 254.955 376.12 254.859C376.15 245.034 376.216 76.0348 376.054 59.247Z" fill="white"/>
<g clip-path="url(#clip1_207_201)">
<path d="M232.65 238.289V247.892C232.65 249.529 233.277 251.101 234.397 252.267C235.516 253.433 237.037 254.1 238.631 254.123H369.117C370.726 254.123 372.269 253.467 373.407 252.298C374.545 251.13 375.184 249.545 375.184 247.892V67.3958C375.184 65.7433 374.545 64.1584 373.407 62.9899C372.269 61.8213 370.726 61.1649 369.117 61.1649H238.631C237.027 61.1649 235.49 61.819 234.356 62.9833C233.222 64.1477 232.585 65.7269 232.585 67.3735V244.743" fill="white"/>
<path d="M369.117 258.143H238.631C235.984 258.143 233.445 257.063 231.573 255.141C229.7 253.218 228.649 250.611 228.649 247.892V67.3735C228.649 66.0284 228.907 64.6965 229.409 63.454C229.911 62.2116 230.647 61.083 231.574 60.1329C232.501 59.1828 233.602 58.4298 234.813 57.9171C236.024 57.4044 237.321 57.142 238.631 57.1449H369.117C371.764 57.1449 374.303 58.2249 376.175 60.1473C378.047 62.0697 379.099 64.6771 379.099 67.3958V247.892C379.099 250.611 378.047 253.218 376.175 255.141C374.303 257.063 371.764 258.143 369.117 258.143ZM236.565 238.289V247.892C236.565 248.484 236.794 249.052 237.202 249.471C237.61 249.89 238.163 250.125 238.74 250.125H369.117C369.694 250.125 370.247 249.89 370.655 249.471C371.063 249.052 371.292 248.484 371.292 247.892V67.3958C371.292 66.8035 371.063 66.2354 370.655 65.8166C370.247 65.3978 369.694 65.1625 369.117 65.1625H238.631C238.054 65.1625 237.501 65.3978 237.093 65.8166C236.685 66.2354 236.456 66.8035 236.456 67.3958L236.565 238.289Z" fill="#606060"/>
<path d="M291.63 83.833H248.809V104.804H291.63V83.833Z" fill="#FF8898"/>
<path d="M261.749 151.614C268.907 151.614 274.71 145.655 274.71 138.303C274.71 130.952 268.907 124.993 261.749 124.993C254.59 124.993 248.787 130.952 248.787 138.303C248.787 145.655 254.59 151.614 261.749 151.614Z" fill="#94D5D2"/>
<path d="M261.749 191.523C268.907 191.523 274.71 185.564 274.71 178.213C274.71 170.862 268.907 164.902 261.749 164.902C254.59 164.902 248.787 170.862 248.787 178.213C248.787 185.564 254.59 191.523 261.749 191.523Z" fill="#94D5D2"/>
<path d="M261.749 231.455C268.907 231.455 274.71 225.496 274.71 218.144C274.71 210.793 268.907 204.834 261.749 204.834C254.59 204.834 248.787 210.793 248.787 218.144C248.787 225.496 254.59 231.455 261.749 231.455Z" fill="#94D5D2"/>
<path d="M358.939 96.0269H299.503V104.804H358.939V96.0269Z" fill="#606060"/>
<path d="M358.939 83.833H299.503V92.6099H358.939V83.833Z" fill="#606060"/>
<path d="M369.117 258.143H238.631C235.984 258.143 233.445 257.063 231.573 255.141C229.7 253.218 228.649 250.611 228.649 247.892V67.3735C228.649 66.0284 228.907 64.6965 229.409 63.454C229.911 62.2116 230.647 61.083 231.574 60.1329C232.501 59.1828 233.602 58.4298 234.813 57.9171C236.024 57.4044 237.321 57.142 238.631 57.1449H369.117C371.764 57.1449 374.303 58.2249 376.175 60.1473C378.047 62.0697 379.099 64.6771 379.099 67.3958V247.892C379.099 250.611 378.047 253.218 376.175 255.141C374.303 257.063 371.764 258.143 369.117 258.143ZM236.565 238.289V247.892C236.565 248.484 236.794 249.052 237.202 249.471C237.61 249.89 238.163 250.125 238.74 250.125H369.117C369.694 250.125 370.247 249.89 370.655 249.471C371.063 249.052 371.292 248.484 371.292 247.892V67.3958C371.292 66.8035 371.063 66.2354 370.655 65.8166C370.247 65.3978 369.694 65.1625 369.117 65.1625H238.631C238.054 65.1625 237.501 65.3978 237.093 65.8166C236.685 66.2354 236.456 66.8035 236.456 67.3958L236.565 238.289Z" fill="#606060"/>
<path d="M261.749 147.706L252.506 138.214C252.142 137.84 251.853 137.396 251.656 136.908C251.459 136.419 251.357 135.895 251.357 135.367C251.357 134.838 251.459 134.314 251.656 133.826C251.853 133.337 252.142 132.893 252.506 132.519C252.87 132.145 253.302 131.849 253.778 131.646C254.254 131.444 254.764 131.34 255.279 131.34C255.794 131.34 256.304 131.444 256.779 131.646C257.255 131.849 257.687 132.145 258.052 132.519L261.77 136.338L271.97 125.864C272.706 125.109 273.703 124.684 274.743 124.684C275.783 124.684 276.78 125.109 277.516 125.864C278.251 126.619 278.664 127.643 278.664 128.711C278.664 129.779 278.251 130.804 277.516 131.559L261.749 147.706Z" fill="#606060"/>
<path d="M261.749 187.637L252.506 178.146C251.771 177.391 251.357 176.366 251.357 175.298C251.357 174.23 251.771 173.206 252.506 172.451C253.241 171.696 254.239 171.271 255.279 171.271C256.319 171.271 257.316 171.696 258.052 172.451L261.77 176.27L271.97 165.796C272.334 165.422 272.767 165.125 273.242 164.923C273.718 164.72 274.228 164.616 274.743 164.616C275.258 164.616 275.768 164.72 276.244 164.923C276.719 165.125 277.152 165.422 277.516 165.796C277.88 166.169 278.169 166.613 278.366 167.102C278.563 167.591 278.664 168.114 278.664 168.643C278.664 169.172 278.563 169.695 278.366 170.184C278.169 170.673 277.88 171.117 277.516 171.49L261.749 187.637Z" fill="#606060"/>
<path d="M261.749 227.547L252.506 218.055C252.142 217.681 251.853 217.237 251.656 216.749C251.459 216.26 251.357 215.736 251.357 215.208C251.357 214.679 251.459 214.155 251.656 213.667C251.853 213.178 252.142 212.734 252.506 212.36C252.87 211.986 253.302 211.69 253.778 211.487C254.254 211.285 254.764 211.181 255.279 211.181C255.794 211.181 256.304 211.285 256.779 211.487C257.255 211.69 257.687 211.986 258.052 212.36L261.77 216.179L271.97 205.705C272.334 205.331 272.767 205.034 273.242 204.832C273.718 204.63 274.228 204.525 274.743 204.525C275.258 204.525 275.768 204.63 276.244 204.832C276.719 205.034 277.152 205.331 277.516 205.705C277.88 206.079 278.169 206.523 278.366 207.011C278.563 207.5 278.664 208.023 278.664 208.552C278.664 209.081 278.563 209.605 278.366 210.093C278.169 210.582 277.88 211.026 277.516 211.4L261.749 227.547Z" fill="#606060"/>
<path d="M358.939 128.03H294.153V136.07H358.939V128.03Z" fill="#606060"/>
<path d="M333.038 141.318H294.153V149.358H333.038V141.318Z" fill="#606060"/>
<path d="M313.595 167.94H294.153V175.979H313.595V167.94Z" fill="#606060"/>
<path d="M358.961 167.94H320.076V175.979H358.961V167.94Z" fill="#606060"/>
<path d="M345.999 181.25H294.153V189.29H345.999V181.25Z" fill="#606060"/>
<path d="M358.939 207.871H294.153V215.911H358.939V207.871Z" fill="#606060"/>
<path d="M313.595 221.182H294.153V229.222H313.595V221.182Z" fill="#606060"/>
<path d="M339.518 221.182H320.076V229.222H339.518V221.182Z" fill="#606060"/>
</g>
<path d="M396.533 196.456C393.354 193.63 382.043 190.034 375.733 190.54C374.689 190.645 373.713 191.111 372.972 191.858C372.23 192.606 371.768 193.589 371.663 194.641C371.631 195.661 371.893 196.669 372.416 197.543C372.938 198.417 373.701 199.12 374.61 199.567C378.932 201.796 384.903 203.442 389.332 205.792C380.345 204.084 376.521 203.064 368.228 202.183C366.327 201.9 364.392 201.948 362.507 202.326C361.732 202.532 361.027 202.949 360.469 203.53C359.912 204.112 359.523 204.837 359.346 205.625C359.168 206.414 359.207 207.237 359.46 208.004C359.713 208.772 360.17 209.455 360.781 209.979C361.651 210.556 362.605 210.992 363.608 211.272L364.671 211.561C361.948 211.42 360.009 212.609 359.217 214.811C358.969 215.559 358.893 216.353 358.993 217.135C359.093 217.917 359.367 218.666 359.795 219.326C360.63 220.51 361.751 221.459 363.051 222.085C365.76 223.431 368.624 224.436 371.577 225.075C368.615 224.702 366.236 226.059 365.565 228.085C365.092 229.51 366.021 231.999 366.95 233.127C369.069 235.698 371.853 236.376 375.174 237.623C377.08 238.339 379.068 238.781 381.012 239.361L396.533 196.456Z" fill="white"/>
<path d="M398.32 194.654C395.818 192.723 392.977 191.285 389.946 190.417C386.334 189.154 382.581 188.348 378.772 188.017C375.672 187.775 372.546 188.147 370.51 190.805C367.917 194.187 369.247 198.844 372.479 201.205C374.176 202.285 375.997 203.151 377.903 203.786C380.42 204.797 382.979 205.701 385.481 206.75C386.127 206.926 386.816 206.838 387.397 206.505C387.979 206.172 388.407 205.621 388.588 204.971C388.75 204.321 388.656 203.632 388.328 203.049C388 202.466 387.461 202.032 386.824 201.838C383.376 200.394 379.772 199.281 376.417 197.627C376.02 197.44 375.636 197.224 375.268 196.983C375.232 196.959 374.981 196.758 375.199 196.935C375.451 197.141 375.076 196.816 375.026 196.764C374.947 196.679 374.522 196.189 374.664 196.388C374.394 196.036 374.233 195.612 374.201 195.169C374.168 194.725 374.266 194.282 374.482 193.894C374.719 193.583 374.791 193.576 375.324 193.266C375.745 193.027 375.091 193.308 375.508 193.19C375.706 193.161 375.9 193.109 376.086 193.036C376.341 192.882 375.401 193.043 375.859 193.073C375.989 193.08 376.132 193.055 376.263 193.049C376.545 193.036 376.827 193.032 377.105 193.033C377.815 193.033 378.526 193.08 379.233 193.148C382.143 193.477 385.009 194.118 387.784 195.058C389.2 195.502 390.588 196.034 391.94 196.65C392.539 196.932 393.13 197.233 393.701 197.569C393.964 197.724 394.219 197.887 394.473 198.057C394.559 198.116 394.643 198.178 394.728 198.239C395.035 198.46 394.287 197.869 394.737 198.258C395.219 198.719 395.859 198.977 396.524 198.977C397.188 198.977 397.828 198.719 398.31 198.258C398.778 197.777 399.041 197.131 399.041 196.457C399.041 195.783 398.778 195.136 398.31 194.656L398.32 194.654Z" fill="#3D3D3D"/>
<path d="M388.414 203.03C384.387 202.247 380.373 201.381 376.324 200.716C372.1 200.023 367.47 199.036 363.19 199.611C362.147 199.708 361.138 200.038 360.236 200.576C359.335 201.115 358.563 201.849 357.978 202.725C357.392 203.602 357.008 204.598 356.852 205.643C356.695 206.688 356.772 207.755 357.075 208.766C358.562 213.519 364.362 214.114 368.457 215.231L385.007 219.746C388.15 220.603 389.49 215.691 386.35 214.834L370.302 210.456C367.974 209.95 365.677 209.31 363.423 208.537C362.265 208.068 361.139 206.895 362.055 205.584C363.107 204.069 365.849 204.522 367.37 204.649C369.52 204.82 371.671 205.111 373.803 205.44C378.252 206.125 382.656 207.083 387.074 207.942C387.719 208.104 388.402 208.01 388.98 207.679C389.559 207.348 389.989 206.805 390.182 206.163C390.354 205.512 390.265 204.819 389.935 204.233C389.605 203.647 389.06 203.215 388.417 203.03H388.414Z" fill="#3D3D3D"/>
<path d="M364.672 209.013C362.982 208.874 361.294 209.3 359.868 210.226C358.443 211.151 357.359 212.524 356.785 214.133C355.447 218.083 357.816 221.9 361.108 223.904C364.568 226.01 368.598 226.946 372.476 227.936C376.673 229.005 380.872 230.072 385.072 231.135C388.229 231.937 389.57 227.026 386.415 226.224C383.139 225.39 379.864 224.558 376.588 223.729C373.473 222.937 370.299 222.25 367.264 221.182C365.324 220.496 362.147 219.403 361.567 217.118C361.011 214.93 362.85 214.063 364.675 214.114C367.928 214.203 367.926 209.109 364.675 209.02L364.672 209.013Z" fill="#3D3D3D"/>
<path d="M371.586 222.532C370.42 222.39 369.237 222.49 368.11 222.825C366.983 223.16 365.935 223.724 365.032 224.482C364.172 225.246 363.539 226.236 363.203 227.342C362.868 228.447 362.843 229.625 363.131 230.743C363.601 232.905 364.783 234.842 366.485 236.239C368.302 237.619 370.341 238.675 372.513 239.359C375.102 240.295 377.708 241.044 380.346 241.82C380.666 241.908 381 241.933 381.329 241.892C381.659 241.85 381.977 241.744 382.265 241.579C382.554 241.414 382.807 241.193 383.011 240.929C383.215 240.665 383.365 240.363 383.454 240.04C383.542 239.718 383.566 239.381 383.525 239.049C383.484 238.717 383.379 238.396 383.215 238.105C383.051 237.814 382.832 237.559 382.57 237.353C382.308 237.148 382.009 236.996 381.689 236.907C379.163 236.164 376.674 235.46 374.198 234.572C373.672 234.386 373.157 234.199 372.642 233.997C372.499 233.942 372.357 233.891 372.221 233.827C372.475 233.939 372.468 233.936 372.201 233.819C371.999 233.725 371.796 233.633 371.597 233.534C371.137 233.307 370.691 233.051 370.263 232.767C370.141 232.685 370.021 232.601 369.902 232.514C370.091 232.664 370.116 232.682 369.976 232.568C369.78 232.388 369.575 232.221 369.386 232.037C369.218 231.872 369.07 231.692 368.904 231.521C368.686 231.26 368.693 231.275 368.928 231.569C368.854 231.463 368.785 231.357 368.717 231.243C368.612 231.064 368.52 230.875 368.417 230.692C368.297 230.429 368.293 230.429 368.404 230.692C368.348 230.551 368.298 230.409 368.247 230.268C368.175 230.056 368.111 229.836 368.056 229.616C368.021 229.472 367.991 229.328 367.965 229.181C368 229.502 368.006 229.516 367.98 229.224C367.98 229.021 368.075 228.531 367.926 229.118C367.984 228.886 368.29 228.36 367.966 228.874C368.063 228.72 368.151 228.555 368.247 228.401C367.909 228.951 368.352 228.342 368.466 228.214C368.799 227.859 368.093 228.395 368.571 228.139C368.808 228.011 369.03 227.863 369.278 227.754C368.867 227.935 369.278 227.777 369.469 227.722C369.548 227.7 370.298 227.548 370.006 227.59C369.713 227.633 370.514 227.568 370.603 227.568C370.935 227.57 371.266 227.591 371.595 227.63C372.264 227.628 372.906 227.359 373.379 226.882C373.853 226.405 374.119 225.758 374.121 225.083C374.103 224.413 373.831 223.776 373.361 223.302C372.891 222.828 372.259 222.554 371.595 222.536L371.586 222.532Z" fill="#3D3D3D"/>
<path d="M395.134 198.584C396.95 201.736 397.819 205.353 397.635 208.994C397.586 213.405 397.388 217.815 397.017 222.21C396.695 226.485 396.128 230.737 395.317 234.945C395.025 236.872 394.355 238.721 393.345 240.384C392.209 241.867 390.845 243.157 389.304 244.204C387.275 245.761 385.244 247.314 383.212 248.863C381.232 250.36 379.342 251.974 377.552 253.698C375.205 255.975 378.781 259.574 381.125 257.3C382.718 255.749 384.402 254.296 386.167 252.949C388.121 251.455 390.074 249.962 392.025 248.469C393.787 247.235 395.394 245.789 396.809 244.163C398.259 242.298 399.293 240.141 399.842 237.838C400.874 233.337 401.56 228.762 401.894 224.155C402.351 219.425 402.598 214.674 402.675 209.923C402.753 205.118 402.105 200.151 399.497 196.011C397.758 193.252 393.385 195.804 395.134 198.583V198.584Z" fill="#3D3D3D"/>
<path d="M249.479 232.004C251.639 231.821 253.689 230.969 255.348 229.563C255.977 228.98 256.451 228.247 256.727 227.431C257.003 226.615 257.072 225.743 256.927 224.894C256.859 223.952 256.505 223.053 255.912 222.322C255.319 221.591 254.516 221.061 253.614 220.807C251.665 220.419 249.667 220.341 247.694 220.577C244.541 220.862 241.406 221.333 238.307 221.988C240.809 219.908 242.88 217.555 243.246 215.621C243.678 213.343 242.06 211.606 240.021 210.883C237.878 210.211 235.603 210.086 233.4 210.518C226.563 211.678 219.787 213.181 213.099 215.023C210.878 215.552 208.799 216.566 207.01 217.995C204.905 219.898 203.865 222.698 203.054 225.385C200.788 232.901 199.102 239.838 192.935 244.542C196.675 252.523 202.588 265.594 205.44 271.966C208.45 270.799 212.975 270.087 215.735 268.995C217.773 268.189 219.622 266.966 221.167 265.402C222.175 264.472 223.422 262.464 225.693 262.037C230.442 261.025 235.254 260.338 240.096 259.979C242.733 259.849 245.922 259.348 246.909 256.879C247.342 256.052 247.438 255.087 247.175 254.191C246.913 253.294 246.314 252.536 245.505 252.079C245.066 251.824 244.593 251.634 244.1 251.516C243.326 251.289 242.538 251.114 241.748 250.952C239.902 250.572 238.04 250.273 236.179 249.979C234.838 249.767 232.088 249.194 230.745 249.009C230.282 248.946 230.306 248.576 230.511 248.341L230.574 248.268C237.626 246.522 246.257 244.738 250.091 243.674C254.773 242.376 257.27 239.386 256.802 236.435C255.868 230.551 249.108 232.659 249.479 232.004Z" fill="white"/>
<path d="M193.701 247.15C197.778 244.082 200.872 239.876 202.602 235.052C203.501 232.77 204.201 230.414 204.901 228.065C205.628 225.619 206.239 222.952 207.802 220.879C209.315 218.871 211.753 218.1 214.051 217.412C216.072 216.808 218.123 216.302 220.175 215.82C224.763 214.742 229.41 213.691 234.074 212.991C235.819 212.729 239.627 212.417 240.654 214.394C241.579 216.177 237.944 218.973 236.876 219.903C234.411 222.05 237.998 225.639 240.449 223.506C242.604 221.628 245.052 219.235 245.684 216.315C245.965 214.848 245.751 213.329 245.076 212C244.401 210.67 243.304 209.607 241.96 208.979C236.841 206.374 230.39 208.437 225.105 209.529C220.072 210.569 214.821 211.529 210.012 213.403C206.969 214.465 204.4 216.582 202.763 219.378C201.423 222.088 200.388 224.942 199.678 227.884C198.002 233.452 196.026 239.203 191.152 242.754C190.588 243.109 190.179 243.667 190.011 244.315C189.842 244.963 189.926 245.652 190.246 246.24C190.588 246.819 191.142 247.239 191.788 247.41C192.435 247.581 193.123 247.489 193.702 247.153L193.701 247.15Z" fill="#3D3D3D"/>
<path d="M220.02 213.35C220.933 212.819 221.863 212.318 222.813 211.846C223.286 211.611 223.764 211.384 224.246 211.166C224.49 211.06 224.735 210.953 224.983 210.84C225.246 210.727 225.23 210.734 224.936 210.859L225.311 210.703C227.46 209.835 229.653 209.082 231.882 208.447C232.202 208.358 232.501 208.206 232.763 208.001C233.024 207.795 233.243 207.54 233.407 207.249C233.571 206.958 233.676 206.637 233.717 206.305C233.758 205.973 233.734 205.636 233.646 205.314C233.558 204.991 233.407 204.69 233.203 204.426C232.999 204.162 232.746 203.941 232.458 203.776C232.169 203.611 231.851 203.504 231.522 203.463C231.193 203.422 230.858 203.446 230.539 203.535C225.984 204.804 221.598 206.621 217.474 208.948C217.188 209.117 216.937 209.341 216.737 209.607C216.536 209.874 216.389 210.177 216.305 210.501C216.221 210.825 216.201 211.162 216.246 211.493C216.291 211.825 216.401 212.144 216.568 212.433C216.735 212.722 216.958 212.974 217.222 213.177C217.486 213.379 217.788 213.527 218.109 213.611C218.43 213.696 218.764 213.717 219.093 213.671C219.422 213.626 219.738 213.515 220.025 213.347L220.02 213.35Z" fill="#3D3D3D"/>
<path d="M218.626 229.551C226.574 227.027 234.691 225.083 242.916 223.732C244.661 223.424 246.421 223.211 248.189 223.095C249.971 222.981 253.423 222.352 254.257 224.509C255.13 226.766 253.329 228.321 251.386 228.983C248.666 229.722 245.894 230.246 243.094 230.551C236.301 231.572 229.589 233.078 223.009 235.057C219.925 236.054 221.242 240.974 224.352 239.97C230.857 238.01 237.491 236.518 244.205 235.503C249.929 234.524 258.717 234.025 259.467 226.494C259.655 224.973 259.384 223.431 258.689 222.068C257.994 220.705 256.908 219.585 255.573 218.853C252.813 217.519 249.377 217.846 246.422 218.15C241.486 218.733 236.59 219.619 231.762 220.803C226.903 221.918 222.036 223.114 217.285 224.636C214.198 225.625 215.517 230.545 218.628 229.548L218.626 229.551Z" fill="#3D3D3D"/>
<path d="M250.309 234.692C250.67 234.685 251.031 234.677 251.391 234.692C251.601 234.7 251.812 234.714 252.029 234.73C252.066 234.73 252.43 234.786 252.139 234.74C251.849 234.694 252.324 234.782 252.373 234.796C253.004 234.977 253.027 234.916 253.343 235.142C253.711 235.405 253.87 235.448 254.066 235.965C254.216 236.342 254.306 236.741 254.333 237.147C254.361 237.501 254.275 237.855 254.087 238.156C253.452 239.202 252.511 240.024 251.394 240.508C249.17 241.64 246.412 242.01 244.001 242.566C240.937 243.271 237.868 243.952 234.805 244.662C231.374 245.458 227.943 246.269 224.559 247.252C221.441 248.158 222.77 253.075 225.902 252.163C232.828 250.147 239.92 248.758 246.934 247.108C250.318 246.311 253.744 245.536 256.453 243.191C257.851 242.038 258.812 240.433 259.172 238.648C259.532 236.862 259.269 235.007 258.428 233.394C256.814 230.344 253.481 229.531 250.309 229.6C247.063 229.672 247.051 234.766 250.309 234.694V234.692Z" fill="#3D3D3D"/>
<path d="M228.333 247.074C227.978 247.637 227.822 248.303 227.889 248.966C227.956 249.629 228.242 250.25 228.701 250.73C229.528 251.564 230.818 251.593 231.901 251.791C234.111 252.198 236.335 252.565 238.555 252.95C239.874 253.179 241.197 253.417 242.497 253.739C243.255 253.927 244.416 254.044 244.761 254.892C245.206 255.985 243.65 256.856 242.611 257.121C240.357 257.696 237.91 257.563 235.606 257.847C232.72 258.203 229.856 258.696 226.997 259.227C224.685 259.473 222.517 260.477 220.826 262.085C219.749 263.305 218.549 264.41 217.247 265.381C213.127 268.095 207.798 268.114 203.346 270.115C202.771 270.459 202.353 271.018 202.184 271.67C202.014 272.322 202.106 273.015 202.44 273.599C202.789 274.171 203.343 274.584 203.986 274.754C204.63 274.924 205.314 274.838 205.896 274.513C210.023 272.659 214.764 272.585 218.81 270.374C220.551 269.398 222.129 268.15 223.485 266.678C224.011 266.013 224.621 265.421 225.301 264.919C226.42 264.422 227.617 264.128 228.837 264.049C231.744 263.511 234.658 263 237.603 262.724C239.991 262.5 242.508 262.593 244.798 261.777C245.946 261.433 246.989 260.799 247.828 259.936C248.667 259.073 249.274 258.009 249.592 256.845C249.927 255.602 249.866 254.286 249.42 253.08C248.974 251.874 248.164 250.839 247.104 250.122C245.816 249.342 244.387 248.829 242.9 248.612C241.235 248.251 239.554 247.975 237.873 247.702C236.746 247.521 235.623 247.325 234.505 247.114C233.376 246.994 232.259 246.781 231.165 246.477L232.675 247.645L232.57 247.473L232.915 248.759L232.933 248.555L232.589 249.84L232.704 249.645C234.368 246.82 230.002 244.255 228.341 247.075L228.333 247.074Z" fill="#3D3D3D"/>
<path d="M188.431 242.121C186.088 243.23 184.018 244.444 179.979 246.079L195.838 281.6C195.115 283.038 204.258 277.328 207.068 275.651C206.524 274.318 195.437 249.68 191.218 240.93C190.181 241.324 189.288 241.72 188.431 242.121Z" fill="white"/>
<path d="M197.036 284.185C201.043 282.691 204.687 280.037 208.342 277.85C208.82 277.563 209.192 277.127 209.401 276.608C209.61 276.089 209.645 275.515 209.5 274.974C205.658 265.661 201.259 256.542 197.036 247.402C195.838 244.809 194.636 242.218 193.396 239.645C193.115 239.161 192.682 238.784 192.167 238.573C191.651 238.362 191.08 238.328 190.544 238.478C186.851 239.898 183.434 241.911 179.784 243.431C179.15 243.628 178.615 244.062 178.287 244.645C177.959 245.227 177.864 245.913 178.02 246.563C178.202 247.212 178.63 247.763 179.211 248.096C179.793 248.429 180.482 248.518 181.127 248.342C184.771 246.824 188.207 244.805 191.887 243.389L189.034 242.222C193.918 252.364 198.507 262.66 203.107 272.935C203.499 273.812 203.891 274.689 204.282 275.568C204.404 275.843 204.525 276.118 204.647 276.394C204.769 276.67 205.091 277.455 204.629 276.334L205.787 273.457C204.008 274.518 202.245 275.609 200.46 276.661C199.485 277.236 198.507 277.805 197.513 278.347C197.119 278.56 196.724 278.772 196.323 278.977C196.123 279.077 195.922 279.173 195.72 279.269C195.234 279.5 196.141 279.11 195.684 279.279C195.048 279.474 194.51 279.908 194.182 280.491C193.854 281.074 193.76 281.762 193.92 282.413C194.103 283.061 194.531 283.611 195.112 283.944C195.694 284.277 196.382 284.366 197.027 284.192L197.036 284.185Z" fill="#3D3D3D"/>
<path d="M121.362 327.244C153.231 314.155 172.27 303.617 198.002 286.446L178.619 243.041C159.568 251.701 136.902 263.569 118.913 271.672L121.362 327.244Z" fill="#007AFF"/>
<path d="M120.188 273.866C135.885 266.784 151.206 258.883 166.725 251.417C171.096 249.315 175.485 247.255 179.895 245.235L176.438 244.321L195.825 287.731L196.732 284.247C185.905 291.463 174.894 298.414 163.488 304.671C151.796 311.085 139.724 316.76 127.461 321.97C124.609 323.18 121.735 324.331 118.923 325.629C118.797 325.687 118.67 325.741 118.542 325.797C119.075 325.566 118.341 325.878 118.291 325.903C117.799 326.1 117.307 326.295 116.811 326.483C115.663 326.92 114.505 327.334 113.338 327.726C110.897 328.556 108.431 329.324 105.933 329.954C104.999 330.191 104.061 330.396 103.116 330.576C103.011 330.596 102.28 330.689 102.955 330.611C102.775 330.633 102.595 330.653 102.414 330.665C101.591 330.726 100.764 330.707 99.9448 330.608C94.2315 329.892 89.6297 325.527 86.8931 320.664C83.8083 315.007 81.6884 308.866 80.622 302.5C79.1379 294.435 78.2295 286.282 77.3359 278.136C76.3886 269.53 75.6571 260.905 75.2497 252.255C75.096 248.991 70.0427 248.972 70.1975 252.255C70.9381 268.03 72.5387 283.753 74.9918 299.351C75.8709 306.023 77.6434 312.544 80.2609 318.735C83.0365 324.896 87.0226 330.782 93.2558 333.786C96.1394 335.256 99.3575 335.932 102.584 335.744C104.773 335.494 106.935 335.041 109.042 334.389C113.622 333.167 118.091 331.556 122.401 329.573C125.64 328.029 129.266 326.692 132.645 325.234C136.005 323.784 139.349 322.299 142.678 320.777C148.796 317.969 154.839 315.003 160.807 311.879C174.019 304.81 186.859 297.056 199.276 288.648C199.837 288.292 200.244 287.734 200.412 287.086C200.58 286.439 200.498 285.752 200.182 285.164L180.8 241.759C180.2 240.416 178.475 240.33 177.343 240.845C161.479 248.062 145.968 256.041 130.254 263.581C126.068 265.59 121.867 267.567 117.636 269.477C117.061 269.821 116.644 270.379 116.474 271.031C116.305 271.683 116.397 272.376 116.73 272.961C117.079 273.532 117.633 273.946 118.277 274.116C118.92 274.286 119.604 274.199 120.187 273.874L120.188 273.866Z" fill="#3D3D3D"/>
<path d="M173.456 138.567C176.787 140.773 181.035 141.287 184.929 141.264C189 141.24 193.339 140.576 196.633 138.002C197.103 137.522 197.367 136.875 197.367 136.201C197.367 135.526 197.103 134.879 196.633 134.4C196.151 133.938 195.511 133.68 194.846 133.68C194.181 133.68 193.542 133.938 193.06 134.4C193.791 133.829 193.099 134.345 192.909 134.462C192.667 134.613 192.416 134.749 192.161 134.876C192.029 134.941 191.894 135.003 191.76 135.064C191.445 135.207 192.345 134.861 191.738 135.064C191.394 135.18 191.056 135.309 190.708 135.413C188.705 135.985 186.627 136.24 184.547 136.169C182.596 136.221 180.648 135.976 178.769 135.444C178.404 135.338 178.049 135.21 177.691 135.082C177.573 135.041 177.459 134.991 177.343 134.944C177.975 135.199 177.435 134.979 177.32 134.92C176.87 134.693 176.432 134.442 176.008 134.168C175.43 133.833 174.744 133.742 174.099 133.915C173.455 134.088 172.904 134.511 172.568 135.091C172.231 135.672 172.136 136.363 172.303 137.014C172.47 137.665 172.885 138.223 173.458 138.566L173.456 138.567Z" fill="#3D3D3D"/>
<path d="M183.836 113.84C184.319 115.603 184.706 117.392 184.993 119.198L184.903 118.52C184.938 118.766 184.945 119.016 184.923 119.263L185.013 118.586C184.997 118.699 184.97 118.811 184.932 118.918L185.187 118.31C185.155 118.385 185.116 118.456 185.07 118.523L185.466 118.008C185.415 118.071 185.356 118.129 185.292 118.18L185.804 117.782C185.669 117.866 185.528 117.941 185.383 118.006L185.986 117.75C185.759 117.849 185.521 117.921 185.277 117.962L185.948 117.871C185.727 117.898 185.504 117.898 185.283 117.871L185.954 117.962C185.703 117.927 185.457 117.866 185.205 117.832C184.547 117.677 183.855 117.768 183.259 118.089C182.68 118.429 182.26 118.988 182.09 119.641C181.92 120.295 182.015 120.989 182.353 121.573C182.513 121.86 182.729 122.111 182.989 122.312C183.248 122.513 183.545 122.658 183.862 122.74C184.416 122.815 184.953 122.959 185.517 122.983C186.358 122.989 187.188 122.792 187.937 122.407C188.408 122.194 188.824 121.877 189.157 121.48C189.49 121.083 189.73 120.616 189.859 120.113C190.029 119.29 190.021 118.439 189.834 117.619C189.545 115.894 189.149 114.183 188.709 112.491C188.531 111.839 188.103 111.286 187.521 110.952C186.938 110.618 186.247 110.532 185.601 110.711C184.955 110.891 184.406 111.322 184.075 111.91C183.744 112.497 183.659 113.193 183.837 113.845L183.836 113.84Z" fill="#3D3D3D"/>
<path d="M156.802 96.5358C155.841 97.7675 155.292 99.2745 155.234 100.84C155.103 104.052 156.344 108.412 160.708 108.866C167.91 108.823 168.294 100.756 165.865 96.9635C165.385 96.21 164.733 95.5832 163.964 95.1356C163.195 94.688 162.33 94.4326 161.443 94.3907C160.556 94.3489 159.671 94.5218 158.864 94.8949C158.057 95.2681 157.349 95.8308 156.802 96.5358Z" fill="#3D3D3D"/>
<path d="M212.117 96.5358C213.077 97.7677 213.626 99.2745 213.685 100.84C213.816 104.052 212.575 108.412 208.212 108.866C201.008 108.823 200.625 100.756 203.054 96.9635C203.534 96.2102 204.186 95.5836 204.955 95.1361C205.725 94.6887 206.589 94.4334 207.476 94.3915C208.363 94.3496 209.247 94.5224 210.055 94.8955C210.862 95.2685 211.569 95.831 212.117 96.5358Z" fill="#3D3D3D"/>
</g>
<defs>
<clipPath id="clip0_207_201">
<rect width="472.105" height="476" fill="white" transform="translate(0.312988 0.5)"/>
</clipPath>
<clipPath id="clip1_207_201">
<rect width="195.729" height="200.998" fill="white" transform="translate(206.01 57.1449)"/>
</clipPath>
</defs>
</svg>
