<svg xmlns="http://www.w3.org/2000/svg" width="164" height="46" viewBox="0 0 164 46" fill="none">
    <g clip-path="url(#clip0_1_369)">
        <path d="M0.678375 36.2908H8.53156V37.8614H5.40384V45.285H3.80626V37.8614H0.678375V36.2908Z" fill="#3C388D"/>
        <path d="M11.7533 41.4456V36.2908H13.3509V41.4053C13.3509 42.1393 13.5656 42.7434 13.9952 43.2177C14.4247 43.6921 14.984 43.9291 15.6732 43.9291C16.3801 43.9291 16.9463 43.6921 17.3714 43.2177C17.7965 42.7434 18.0091 42.1393 18.0091 41.4053V36.2908H19.6201V41.4456C19.6201 42.6718 19.2598 43.6538 18.5394 44.3923C17.8188 45.1306 16.868 45.4999 15.6866 45.4999C14.5054 45.4999 13.5543 45.1306 12.834 44.3923C12.1134 43.654 11.7533 42.6718 11.7533 41.4456Z" fill="#3C388D"/>
        <path d="M25.6878 36.2908H30.2117V37.8614H25.7818C25.495 37.8614 25.267 37.9443 25.097 38.1099C24.9271 38.2757 24.842 38.4701 24.842 38.6939C24.842 38.8908 24.9024 39.0696 25.0234 39.2307C25.1442 39.3919 25.3208 39.4993 25.5536 39.553L28.8156 40.3315C29.4601 40.4926 29.9521 40.7991 30.2924 41.251C30.6324 41.7031 30.8025 42.2019 30.8025 42.7479C30.8025 43.4372 30.5675 44.0322 30.0978 44.5334C29.6279 45.0347 28.9813 45.285 28.158 45.285H23.4325V43.7144H28.0909C28.395 43.7144 28.6366 43.6204 28.8156 43.4324C28.9946 43.2445 29.0842 43.0298 29.0842 42.7882C29.0842 42.5822 29.0171 42.3921 28.8829 42.2176C28.7485 42.043 28.5608 41.9289 28.319 41.8752L25.0435 41.0966C24.408 40.9445 23.9271 40.6469 23.6006 40.2038C23.2736 39.7609 23.1104 39.2709 23.1104 38.7339C23.1104 38.0718 23.3387 37.499 23.795 37.0155C24.2515 36.5324 24.8824 36.2908 25.6879 36.2908H25.6878Z" fill="#3C388D"/>
        <path d="M34.1987 41.4456V36.2908H35.7963V41.4053C35.7963 42.1393 36.0112 42.7434 36.4408 43.2177C36.8703 43.6921 37.4294 43.9291 38.1188 43.9291C38.8257 43.9291 39.3919 43.6921 39.817 43.2177C40.2419 42.7434 40.4545 42.1393 40.4545 41.4053V36.2908H42.0657V41.4456C42.0657 42.6718 41.7053 43.6538 40.985 44.3923C40.2644 45.1306 39.3136 45.4999 38.1322 45.4999C36.951 45.4999 35.9999 45.1306 35.2794 44.3923C34.559 43.654 34.1987 42.6718 34.1987 41.4456Z" fill="#3C388D"/>
        <path d="M47.6902 45.285H46.0793V36.2908H50.6436C51.5384 36.2908 52.2633 36.5123 52.8183 36.9553C53.3732 37.3982 53.6507 38.0136 53.6507 38.801C53.6507 39.6334 53.3553 40.2599 52.7646 40.6806V40.7207C53.4715 40.8908 53.825 41.4235 53.825 42.3183V45.285H52.2141V42.627C52.2141 42.2512 52.0081 42.0633 51.5966 42.0633H47.6901V45.285H47.6902ZM47.6902 37.8614V40.5597H50.5362C50.9836 40.5597 51.346 40.4367 51.6235 40.1904C51.9009 39.9445 52.0395 39.6155 52.0395 39.2038C52.0395 38.801 51.8964 38.4768 51.6101 38.2306C51.3234 37.9845 50.9657 37.8612 50.5362 37.8612H47.6902V37.8614Z" fill="#3C388D"/>
        <path d="M63.0743 41.4456V36.2908H64.6717V41.4053C64.6717 42.1393 64.8866 42.7434 65.3162 43.2177C65.7457 43.6921 66.305 43.9291 66.9942 43.9291C67.7011 43.9291 68.2673 43.6921 68.6924 43.2177C69.1175 42.7434 69.3301 42.1393 69.3301 41.4053V36.2908H70.9411V41.4456C70.9411 42.6718 70.5807 43.6538 69.8604 44.3923C69.1398 45.1306 68.189 45.4999 67.0076 45.4999C65.8264 45.4999 64.8753 45.1306 64.155 44.3923C63.4344 43.654 63.0743 42.6718 63.0743 41.4456Z" fill="#3C388D"/>
        <path d="M81.5998 42.6404V36.2908H83.2106V45.285H81.5998L76.5658 38.5192V45.285H74.9548V36.2908H76.8344L81.5998 42.6404Z" fill="#3C388D"/>
        <path d="M87.4659 45.285V36.2908H89.077V45.285H87.4659Z" fill="#3C388D"/>
        <path d="M97.0239 43.325L99.9505 36.2908H101.682L97.8696 45.285H96.1109L92.2986 36.2908H94.0572L97.0239 43.325Z" fill="#3C388D"/>
        <path d="M111.589 45.285H104.81V36.2908H111.589V37.8614H106.421V39.9153H111.092V41.4322H106.421V43.7144H111.589V45.285Z" fill="#3C388D"/>
        <path d="M117.08 45.285H115.469V36.2908H120.033C120.928 36.2908 121.653 36.5123 122.208 36.9553C122.762 37.3982 123.04 38.0136 123.04 38.801C123.04 39.6334 122.745 40.2599 122.154 40.6806V40.7207C122.861 40.8908 123.214 41.4235 123.214 42.3183V45.285H121.603V42.627C121.603 42.2512 121.397 42.0633 120.986 42.0633H117.079V45.285H117.08ZM117.08 37.8614V40.5597H119.925C120.373 40.5597 120.735 40.4367 121.013 40.1904C121.29 39.9445 121.429 39.6155 121.429 39.2038C121.429 38.801 121.286 38.4768 120.999 38.2306C120.713 37.9845 120.355 37.8612 119.925 37.8612H117.08V37.8614Z" fill="#3C388D"/>
        <path d="M129.296 36.2908H133.82V37.8614H129.39C129.103 37.8614 128.875 37.9443 128.705 38.1099C128.535 38.2757 128.45 38.4701 128.45 38.6939C128.45 38.8908 128.51 39.0696 128.631 39.2307C128.752 39.3919 128.929 39.4993 129.162 39.553L132.424 40.3315C133.068 40.4926 133.56 40.7991 133.9 41.251C134.24 41.7031 134.41 42.2019 134.41 42.7479C134.41 43.4372 134.176 44.0322 133.706 44.5334C133.236 45.0347 132.589 45.285 131.766 45.285H127.041V43.7144H131.699C132.003 43.7144 132.245 43.6204 132.424 43.4324C132.602 43.2445 132.692 43.0298 132.692 42.7882C132.692 42.5822 132.625 42.3921 132.491 42.2176C132.357 42.043 132.169 41.9289 131.927 41.8752L128.652 41.0966C128.016 40.9445 127.535 40.6469 127.208 40.2038C126.881 39.7609 126.718 39.2709 126.718 38.7339C126.718 38.0718 126.947 37.499 127.403 37.0155C127.859 36.5324 128.49 36.2908 129.296 36.2908H129.296Z" fill="#3C388D"/>
        <path d="M138.075 45.285V36.2908H139.686V45.285H138.075Z" fill="#3C388D"/>
        <path d="M143.163 36.2908H151.016V37.8614H147.888V45.285H146.29V37.8614H143.163V36.2908Z" fill="#3C388D"/>
        <path d="M160.587 36.2908H162.454L158.775 41.5932V45.285H157.164V41.6605L153.486 36.2908H155.392L157.983 40.1436L160.587 36.2908Z" fill="#3C388D"/>
        <path fill-rule="evenodd" clip-rule="evenodd" d="M17.5664 28.1092L17.6071 6.31455H28.4231V0.5H0.000579834V6.31455H10.8166V28.1092H17.5664Z" fill="#3C388D"/>
        <path fill-rule="evenodd" clip-rule="evenodd" d="M155.857 0.5H135.16L135.119 28.0685H141.909V21.3187H155.816C160.248 21.3187 163.826 17.7403 163.826 13.3083V8.51022C163.867 4.07804 160.289 0.5 155.857 0.5V0.5ZM157.239 15.6261H141.909V6.31472H157.239V15.6261Z" fill="#3C388D"/>
        <path fill-rule="evenodd" clip-rule="evenodd" d="M76.3223 28.1092H93.9286V22.2947H75.1024V6.31455H93.9286V0.5H76.3223C71.8901 0.5 68.3119 4.07821 68.3119 8.51022V20.0988C68.3119 24.5312 71.8903 28.1092 76.3223 28.1092Z" fill="#3C388D"/>
        <path fill-rule="evenodd" clip-rule="evenodd" d="M51.0036 28.0685L65.6239 0.5H58.6598L49.7469 17.3063L39.8575 0.5H32.8933L43.5436 18.9045C44.3967 20.3787 45.9373 21.2831 47.602 21.2873L47.6358 21.2874L44.0396 28.0687H51.0036V28.0685Z" fill="#3C388D"/>
        <path fill-rule="evenodd" clip-rule="evenodd" d="M112.981 21.2873L113.014 21.2875L109.418 28.0688H116.382L131.003 0.500244H124.038L115.126 17.3065L105.236 0.500244H98.2721L108.922 18.9048C109.775 20.379 111.316 21.2834 112.981 21.2875V21.2873Z" fill="#3C388D"/>
    </g>
    <defs>
        <clipPath id="clip0_1_369">
            <rect width="163.827" height="45" fill="white" transform="translate(0 0.5)"/>
        </clipPath>
    </defs>
</svg>